<svg width="556" height="556" viewBox="0 0 556 556" fill="none" xmlns="http://www.w3.org/2000/svg">
<g clip-path="url(#clip0_3_1552)">
<rect width="556" height="556" rx="276" fill="#BED3F4"/>
<mask id="path-2-inside-1_3_1552" fill="white">
<path d="M92.0001 496.863C91.9714 458.302 124.868 430 163.429 430H386.089C426.216 430 459.879 460.531 458.76 500.642C457.705 538.466 452.84 583.975 437.837 617.219C429.092 636.596 407.85 645 386.592 645C325.476 645 235.68 645 166.611 645C145.353 645 124.03 636.713 114.476 617.722C96.5308 582.05 92.0286 534.957 92.0001 496.863Z"/>
</mask>
<path d="M92.0001 496.863C91.9714 458.302 124.868 430 163.429 430H386.089C426.216 430 459.879 460.531 458.76 500.642C457.705 538.466 452.84 583.975 437.837 617.219C429.092 636.596 407.85 645 386.592 645C325.476 645 235.68 645 166.611 645C145.353 645 124.03 636.713 114.476 617.722C96.5308 582.05 92.0286 534.957 92.0001 496.863Z" fill="#334B71"/>
<path d="M166.611 645V653V645ZM437.837 617.219L430.545 613.929L437.837 617.219ZM450.763 500.419C449.714 538.05 444.859 582.21 430.545 613.929L445.128 620.51C460.82 585.739 465.697 538.883 466.757 500.865L450.763 500.419ZM386.592 637C386.472 637 386.353 637 386.233 637C386.114 637 385.994 637 385.874 637C385.754 637 385.634 637 385.514 637C385.394 637 385.274 637 385.154 637C385.034 637 384.913 637 384.793 637C384.672 637 384.552 637 384.431 637C384.311 637 384.19 637 384.069 637C383.948 637 383.827 637 383.706 637C383.585 637 383.464 637 383.342 637C383.221 637 383.1 637 382.978 637C382.857 637 382.735 637 382.613 637C382.492 637 382.37 637 382.248 637C382.126 637 382.004 637 381.882 637C381.76 637 381.637 637 381.515 637C381.393 637 381.27 637 381.148 637C381.025 637 380.902 637 380.78 637C380.657 637 380.534 637 380.411 637C380.288 637 380.165 637 380.042 637C379.918 637 379.795 637 379.672 637C379.548 637 379.425 637 379.301 637C379.178 637 379.054 637 378.93 637C378.806 637 378.683 637 378.559 637C378.435 637 378.31 637 378.186 637C378.062 637 377.938 637 377.813 637C377.689 637 377.564 637 377.44 637C377.315 637 377.19 637 377.066 637C376.941 637 376.816 637 376.691 637C376.566 637 376.441 637 376.316 637C376.19 637 376.065 637 375.94 637C375.814 637 375.689 637 375.563 637C375.438 637 375.312 637 375.186 637C375.06 637 374.934 637 374.808 637C374.682 637 374.556 637 374.43 637C374.304 637 374.178 637 374.051 637C373.925 637 373.798 637 373.672 637C373.545 637 373.419 637 373.292 637C373.165 637 373.038 637 372.911 637C372.784 637 372.657 637 372.53 637C372.403 637 372.276 637 372.148 637C372.021 637 371.894 637 371.766 637C371.639 637 371.511 637 371.383 637C371.256 637 371.128 637 371 637C370.318 637 370.914 637 370.231 637C370.103 637 369.975 637 369.846 637C369.718 637 369.589 637 369.46 637C369.332 637 369.203 637 369.074 637C368.945 637 368.816 637 368.687 637C368.558 637 368.429 637 368.3 637C368.171 637 368.042 637 367.912 637C367.783 637 367.653 637 367.524 637C367.394 637 367.265 637 367.135 637C367.005 637 366.875 637 366.745 637C366.615 637 366.485 637 366.355 637C366.225 637 366.095 637 365.965 637C365.834 637 365.704 637 365.573 637C365.443 637 365.312 637 365.182 637C365.051 637 364.92 637 364.79 637C364.659 637 364.528 637 364.397 637C364.266 637 364.135 637 364.004 637C363.872 637 363.741 637 363.61 637C363.479 637 363.347 637 363.216 637C363.084 637 362.952 637 362.821 637C362.689 637 362.557 637 362.425 637C362.294 637 362.162 637 362.03 637C361.898 637 361.765 637 361.633 637C361.501 637 361.369 637 361.236 637C361.104 637 360.972 637 360.839 637C360.706 637 360.574 637 360.441 637C360.308 637 360.176 637 360.043 637C359.91 637 359.777 637 359.644 637C359.511 637 359.378 637 359.244 637C359.111 637 358.978 637 358.845 637C358.711 637 358.578 637 358.444 637C358.311 637 358.177 637 358.043 637C357.91 637 357.776 637 357.642 637C357.508 637 357.374 637 357.24 637C357.106 637 356.972 637 356.838 637C356.704 637 356.569 637 356.435 637C356.301 637 356.166 637 356.032 637C355.897 637 355.763 637 355.628 637C355.493 637 355.358 637 355.224 637C355.089 637 354.954 637 354.819 637C354.684 637 354.549 637 354.414 637C354.278 637 354.143 637 354.008 637C353.873 637 353.737 637 353.602 637C353.466 637 353.331 637 353.195 637C353.06 637 352.924 637 352.788 637C352.652 637 352.516 637 352.381 637C352.245 637 352.109 637 351.973 637C351.836 637 351.7 637 351.564 637C351.428 637 351.292 637 351.155 637C351.019 637 350.882 637 350.746 637C350.609 637 350.473 637 350.336 637C350.199 637 350.063 637 349.926 637C349.789 637 349.652 637 349.515 637C349.378 637 349.241 637 349.104 637C348.967 637 348.829 637 348.692 637C348.555 637 348.418 637 348.28 637C348.143 637 348.005 637 347.868 637C347.73 637 347.592 637 347.455 637C347.317 637 347.179 637 347.041 637C346.904 637 346.766 637 346.628 637C346.49 637 346.352 637 346.213 637C346.075 637 345.937 637 345.799 637C345.661 637 345.522 637 345.384 637C345.245 637 345.107 637 344.968 637C344.83 637 344.691 637 344.552 637C344.414 637 344.275 637 344.136 637C343.997 637 343.858 637 343.719 637C343.58 637 343.441 637 343.302 637C343.163 637 343.024 637 342.885 637C342.745 637 342.606 637 342.467 637C342.327 637 342.188 637 342.048 637C341.909 637 341.769 637 341.629 637C341.49 637 341.35 637 341.21 637C341.07 637 340.931 637 340.791 637C340.651 637 340.511 637 340.371 637C340.231 637 340.09 637 339.95 637C339.81 637 339.67 637 339.53 637C339.389 637 339.249 637 339.108 637C338.968 637 338.827 637 338.687 637C338.546 637 338.406 637 338.265 637C338.124 637 337.983 637 337.843 637C337.702 637 337.561 637 337.42 637C337.279 637 337.138 637 336.997 637C336.856 637 336.714 637 336.573 637C336.432 637 336.291 637 336.149 637C336.008 637 335.867 637 335.725 637C335.584 637 335.442 637 335.301 637C335.159 637 335.017 637 334.876 637C334.734 637 334.592 637 334.45 637C334.309 637 334.167 637 334.025 637C333.883 637 333.741 637 333.599 637C333.457 637 333.314 637 333.172 637C333.03 637 332.888 637 332.745 637C332.603 637 332.461 637 332.318 637C332.176 637 332.033 637 331.891 637C331.748 637 331.606 637 331.463 637C331.32 637 331.178 637 331.035 637C330.892 637 330.749 637 330.606 637C330.463 637 330.32 637 330.177 637C330.034 637 329.891 637 329.748 637C329.605 637 329.462 637 329.319 637C329.175 637 329.032 637 328.889 637C328.745 637 328.602 637 328.458 637C328.315 637 328.171 637 328.028 637C327.884 637 327.741 637 327.597 637C327.453 637 327.31 637 327.166 637C327.022 637 326.878 637 326.734 637C326.59 637 326.446 637 326.302 637C326.158 637 326.014 637 325.87 637C325.726 637 325.582 637 325.438 637C325.293 637 325.149 637 325.005 637C324.86 637 324.716 637 324.572 637C324.427 637 324.283 637 324.138 637C323.994 637 323.849 637 323.704 637C323.56 637 323.415 637 323.27 637C323.126 637 322.981 637 322.836 637C322.691 637 322.546 637 322.401 637C322.256 637 322.111 637 321.966 637C321.821 637 321.676 637 321.531 637C321.386 637 321.24 637 321.095 637C320.95 637 320.805 637 320.659 637C320.514 637 320.369 637 320.223 637C320.078 637 319.932 637 319.787 637C319.641 637 319.495 637 319.35 637C319.204 637 319.059 637 318.913 637C318.767 637 318.621 637 318.475 637C318.33 637 318.184 637 318.038 637C317.892 637 317.746 637 317.6 637C317.454 637 317.308 637 317.162 637C317.016 637 316.869 637 316.723 637C316.577 637 316.431 637 316.284 637C316.138 637 315.992 637 315.845 637C315.699 637 315.553 637 315.406 637C315.26 637 315.113 637 314.967 637C314.82 637 314.673 637 314.527 637C314.38 637 314.233 637 314.087 637C313.94 637 313.793 637 313.646 637C313.499 637 313.353 637 313.206 637C313.059 637 312.912 637 312.765 637C312.618 637 312.471 637 312.324 637C312.177 637 312.03 637 311.882 637C311.735 637 311.588 637 311.441 637C311.293 637 311.146 637 310.999 637C310.852 637 310.704 637 310.557 637C310.409 637 310.262 637 310.114 637C309.967 637 309.819 637 309.672 637C309.524 637 309.377 637 309.229 637C309.081 637 308.934 637 308.786 637C308.638 637 308.49 637 308.343 637C308.195 637 308.047 637 307.899 637C307.751 637 307.603 637 307.455 637C307.307 637 307.159 637 307.011 637C306.863 637 306.715 637 306.567 637C306.419 637 306.271 637 306.123 637C305.974 637 305.826 637 305.678 637C305.53 637 305.381 637 305.233 637C305.085 637 304.936 637 304.788 637C304.64 637 304.491 637 304.343 637C304.194 637 304.046 637 303.897 637C303.749 637 303.6 637 303.451 637C303.303 637 303.154 637 303.005 637C302.857 637 302.708 637 302.559 637C302.41 637 302.262 637 302.113 637C301.964 637 301.815 637 301.666 637C301.517 637 301.368 637 301.22 637C301.071 637 300.922 637 300.773 637C300.624 637 300.474 637 300.325 637C300.176 637 300.027 637 299.878 637C299.729 637 299.58 637 299.431 637C299.281 637 299.132 637 298.983 637C298.834 637 298.684 637 298.535 637C298.386 637 298.236 637 298.087 637C297.937 637 297.788 637 297.639 637C297.489 637 297.34 637 297.19 637C297.041 637 296.891 637 296.741 637C296.592 637 296.442 637 296.293 637C296.143 637 295.993 637 295.844 637C295.694 637 295.544 637 295.394 637C295.245 637 295.095 637 294.945 637C294.795 637 294.646 637 294.496 637C294.346 637 294.196 637 294.046 637C293.896 637 293.746 637 293.596 637C293.446 637 293.296 637 293.146 637C292.996 637 292.846 637 292.696 637C292.546 637 292.396 637 292.246 637C292.096 637 291.946 637 291.795 637C291.645 637 291.495 637 291.345 637C291.195 637 291.044 637 290.894 637C290.744 637 290.593 637 290.443 637C290.293 637 290.143 637 289.992 637C289.842 637 289.691 637 289.541 637C289.391 637 289.24 637 289.09 637C288.939 637 288.789 637 288.638 637C288.488 637 288.337 637 288.187 637C288.036 637 287.886 637 287.735 637C287.584 637 287.434 637 287.283 637C287.132 637 286.982 637 286.831 637C286.68 637 286.53 637 286.379 637C286.228 637 286.078 637 285.927 637C285.776 637 285.625 637 285.474 637C285.324 637 285.173 637 285.022 637C284.871 637 284.72 637 284.569 637C284.419 637 284.268 637 284.117 637C283.966 637 283.815 637 283.664 637C283.513 637 283.362 637 283.211 637C283.06 637 282.909 637 282.758 637C282.607 637 282.456 637 282.305 637C282.154 637 282.003 637 281.852 637C281.7 637 281.549 637 281.398 637C281.247 637 281.096 637 280.945 637C280.794 637 280.642 637 280.491 637C280.34 637 280.189 637 280.038 637C279.886 637 279.735 637 279.584 637C279.433 637 279.281 637 279.13 637C278.979 637 278.827 637 278.676 637C278.525 637 278.374 637 278.222 637C278.071 637 277.919 637 277.768 637C277.617 637 277.465 637 277.314 637C277.163 637 277.011 637 276.86 637C276.708 637 276.557 637 276.405 637C276.254 637 276.102 637 275.951 637C275.799 637 275.648 637 275.496 637C275.345 637 275.193 637 275.042 637C274.89 637 274.739 637 274.587 637C274.436 637 274.284 637 274.133 637C273.981 637 273.83 637 273.678 637C273.526 637 273.375 637 273.223 637C273.072 637 272.92 637 272.768 637C272.617 637 272.465 637 272.313 637C272.162 637 272.01 637 271.858 637C271.707 637 271.555 637 271.403 637C271.252 637 271.1 637 270.948 637C270.797 637 270.645 637 270.493 637C270.341 637 270.19 637 270.038 637C269.886 637 269.734 637 269.583 637C269.431 637 269.279 637 269.127 637C268.976 637 268.824 637 268.672 637C268.52 637 268.369 637 268.217 637C268.065 637 267.913 637 267.761 637C267.61 637 267.458 637 267.306 637C267.154 637 267.002 637 266.851 637C266.699 637 266.547 637 266.395 637C266.243 637 266.091 637 265.94 637C265.788 637 265.636 637 265.484 637C265.332 637 265.18 637 265.029 637C264.877 637 264.725 637 264.573 637C264.421 637 264.269 637 264.117 637C263.966 637 263.814 637 263.662 637C263.51 637 263.358 637 263.206 637C263.054 637 262.902 637 262.751 637C262.599 637 262.447 637 262.295 637C262.143 637 261.991 637 261.839 637C261.687 637 261.536 637 261.384 637C261.232 637 261.08 637 260.928 637C260.776 637 260.624 637 260.472 637C260.32 637 260.169 637 260.017 637C259.865 637 259.713 637 259.561 637C259.409 637 259.257 637 259.105 637C258.954 637 258.802 637 258.65 637C258.498 637 258.346 637 258.194 637C258.042 637 257.89 637 257.739 637C257.587 637 257.435 637 257.283 637C257.131 637 256.979 637 256.827 637C256.676 637 256.524 637 256.372 637C256.22 637 256.068 637 255.916 637C255.764 637 255.613 637 255.461 637C255.309 637 255.157 637 255.005 637C254.853 637 254.702 637 254.55 637C254.398 637 254.246 637 254.094 637C253.943 637 253.791 637 253.639 637C253.487 637 253.335 637 253.184 637C253.032 637 252.88 637 252.728 637C252.577 637 252.425 637 252.273 637C252.121 637 251.97 637 251.818 637C251.666 637 251.514 637 251.363 637C251.211 637 251.059 637 250.907 637C250.756 637 250.604 637 250.452 637C250.301 637 250.149 637 249.997 637C249.846 637 249.694 637 249.542 637C249.391 637 249.239 637 249.087 637C248.936 637 248.784 637 248.633 637C248.481 637 248.329 637 248.178 637C248.026 637 247.874 637 247.723 637C247.571 637 247.42 637 247.268 637C247.117 637 246.965 637 246.814 637C246.662 637 246.511 637 246.359 637C246.208 637 246.056 637 245.905 637C245.753 637 245.602 637 245.45 637C245.299 637 245.147 637 244.996 637C244.844 637 244.693 637 244.541 637C244.39 637 244.239 637 244.087 637C243.936 637 243.785 637 243.633 637C243.482 637 243.33 637 243.179 637C243.028 637 242.876 637 242.725 637C242.574 637 242.423 637 242.271 637C242.12 637 241.969 637 241.818 637C241.666 637 241.515 637 241.364 637C241.213 637 241.061 637 240.91 637C240.759 637 240.608 637 240.457 637C240.306 637 240.155 637 240.003 637C239.852 637 239.701 637 239.55 637C239.399 637 239.248 637 239.097 637C238.946 637 238.795 637 238.644 637C238.493 637 238.342 637 238.191 637C238.04 637 237.889 637 237.738 637C237.587 637 237.436 637 237.285 637C237.134 637 236.984 637 236.833 637C236.682 637 236.531 637 236.38 637C236.229 637 236.079 637 235.928 637C235.777 637 235.626 637 235.476 637C235.325 637 235.174 637 235.023 637C234.873 637 234.722 637 234.571 637C234.421 637 234.27 637 234.119 637C233.969 637 233.818 637 233.668 637C233.517 637 233.367 637 233.216 637C233.066 637 232.915 637 232.765 637C232.614 637 232.464 637 232.313 637C232.163 637 232.012 637 231.862 637C231.712 637 231.561 637 231.411 637C231.261 637 231.11 637 230.96 637C230.81 637 230.659 637 230.509 637C230.359 637 230.209 637 230.058 637C229.908 637 229.758 637 229.608 637C229.458 637 229.308 637 229.158 637C229.008 637 228.857 637 228.707 637C228.557 637 228.407 637 228.257 637C228.107 637 227.957 637 227.808 637C227.658 637 227.508 637 227.358 637C227.208 637 227.058 637 226.908 637C226.758 637 226.609 637 226.459 637C226.309 637 226.159 637 226.01 637C225.86 637 225.71 637 225.561 637C225.411 637 225.261 637 225.112 637C224.962 637 224.813 637 224.663 637C224.513 637 224.364 637 224.214 637C224.065 637 223.916 637 223.766 637C223.617 637 223.467 637 223.318 637C223.169 637 223.019 637 222.87 637C222.721 637 222.571 637 222.422 637C222.273 637 222.124 637 221.975 637C221.825 637 221.676 637 221.527 637C221.378 637 221.229 637 221.08 637C220.931 637 220.782 637 220.633 637C220.484 637 220.335 637 220.186 637C220.037 637 219.888 637 219.739 637C219.591 637 219.442 637 219.293 637C219.144 637 218.995 637 218.847 637C218.698 637 218.549 637 218.401 637C218.252 637 218.103 637 217.955 637C217.806 637 217.658 637 217.509 637C217.361 637 217.212 637 217.064 637C216.915 637 216.767 637 216.619 637C216.47 637 216.322 637 216.174 637C216.025 637 215.877 637 215.729 637C215.581 637 215.432 637 215.284 637C215.136 637 214.988 637 214.84 637C214.692 637 214.544 637 214.396 637C214.248 637 214.1 637 213.952 637C213.804 637 213.656 637 213.508 637C213.361 637 213.213 637 213.065 637C212.917 637 212.77 637 212.622 637C212.474 637 212.326 637 212.179 637C212.031 637 211.884 637 211.736 637C211.589 637 211.441 637 211.294 637C211.146 637 210.999 637 210.852 637C210.704 637 210.557 637 210.41 637C210.262 637 210.115 637 209.968 637C209.821 637 209.673 637 209.526 637C209.379 637 209.232 637 209.085 637C208.938 637 208.791 637 208.644 637C208.497 637 208.35 637 208.203 637C208.057 637 207.91 637 207.763 637C207.616 637 207.469 637 207.323 637C207.176 637 207.029 637 206.883 637C206.736 637 206.59 637 206.443 637C206.297 637 206.15 637 206.004 637C205.857 637 205.711 637 205.565 637C205.418 637 205.272 637 205.126 637C204.98 637 204.833 637 204.687 637C204.541 637 204.395 637 204.249 637C204.103 637 203.957 637 203.811 637C203.665 637 203.519 637 203.373 637C203.227 637 203.081 637 202.936 637C202.79 637 202.644 637 202.498 637C202.353 637 202.207 637 202.062 637C201.916 637 201.77 637 201.625 637C201.479 637 201.334 637 201.189 637C201.043 637 200.898 637 200.753 637C200.607 637 200.462 637 200.317 637C200.172 637 200.027 637 199.881 637C199.736 637 199.591 637 199.446 637C199.301 637 199.156 637 199.011 637C198.867 637 198.722 637 198.577 637C198.432 637 198.287 637 198.143 637C197.998 637 197.853 637 197.709 637C197.564 637 197.42 637 197.275 637C197.131 637 196.986 637 196.842 637C196.698 637 196.553 637 196.409 637C196.265 637 196.12 637 195.976 637C195.832 637 195.688 637 195.544 637C195.4 637 195.256 637 195.112 637C194.968 637 194.824 637 194.68 637C194.536 637 194.393 637 194.249 637C194.105 637 193.961 637 193.818 637C193.674 637 193.531 637 193.387 637C193.244 637 193.1 637 192.957 637C192.813 637 192.67 637 192.527 637C192.383 637 192.24 637 192.097 637C191.954 637 191.811 637 191.668 637C191.525 637 191.382 637 191.239 637C191.096 637 190.953 637 190.81 637C190.667 637 190.524 637 190.382 637C190.239 637 190.096 637 189.954 637C189.811 637 189.669 637 189.526 637C189.384 637 189.241 637 189.099 637C188.956 637 188.814 637 188.672 637C188.53 637 188.387 637 188.245 637C188.103 637 187.961 637 187.819 637C187.677 637 187.535 637 187.393 637C187.251 637 187.11 637 186.968 637C186.826 637 186.684 637 186.543 637C186.401 637 186.259 637 186.118 637C185.976 637 185.835 637 185.694 637C185.552 637 185.411 637 185.27 637C185.128 637 184.987 637 184.846 637C184.705 637 184.564 637 184.423 637C184.282 637 184.141 637 184 637C183.859 637 183.718 637 183.577 637C183.437 637 183.296 637 183.155 637C183.015 637 182.874 637 182.734 637C182.593 637 182.453 637 182.312 637C182.172 637 182.032 637 181.891 637C181.751 637 181.611 637 181.471 637C181.331 637 181.191 637 181.051 637C180.911 637 180.771 637 180.631 637C180.491 637 180.351 637 180.212 637C180.072 637 179.932 637 179.793 637C179.653 637 179.513 637 179.374 637C179.235 637 179.095 637 178.956 637C178.817 637 178.677 637 178.538 637C178.399 637 178.26 637 178.121 637C177.982 637 177.843 637 177.704 637C177.565 637 177.426 637 177.287 637C177.149 637 177.01 637 176.871 637C176.733 637 176.594 637 176.456 637C176.317 637 176.179 637 176.04 637C175.902 637 175.764 637 175.626 637C175.487 637 175.349 637 175.211 637C175.073 637 174.935 637 174.797 637C174.659 637 174.522 637 174.384 637C174.246 637 174.108 637 173.971 637C173.833 637 173.695 637 173.558 637C173.421 637 173.283 637 173.146 637C173.008 637 172.871 637 172.734 637C172.597 637 172.46 637 172.323 637C172.186 637 172.049 637 171.912 637C171.775 637 171.638 637 171.501 637C171.365 637 171.228 637 171.091 637C170.955 637 170.818 637 170.682 637C170.545 637 170.409 637 170.273 637C170.136 637 170 637 169.864 637C169.728 637 169.592 637 169.456 637C169.32 637 169.184 637 169.048 637C168.912 637 168.776 637 168.641 637C168.505 637 168.37 637 168.234 637C168.098 637 167.963 637 167.828 637C167.692 637 167.557 637 167.422 637C167.287 637 167.151 637 167.016 637C166.881 637 166.746 637 166.611 637V653C166.746 653 166.881 653 167.016 653C167.151 653 167.287 653 167.422 653C167.557 653 167.692 653 167.828 653C167.963 653 168.098 653 168.234 653C168.37 653 168.505 653 168.641 653C168.776 653 168.912 653 169.048 653C169.184 653 169.32 653 169.456 653C169.592 653 169.728 653 169.864 653C170 653 170.136 653 170.273 653C170.409 653 170.545 653 170.682 653C170.818 653 170.955 653 171.091 653C171.228 653 171.365 653 171.501 653C171.638 653 171.775 653 171.912 653C172.049 653 172.186 653 172.323 653C172.46 653 172.597 653 172.734 653C172.871 653 173.008 653 173.146 653C173.283 653 173.421 653 173.558 653C173.695 653 173.833 653 173.971 653C174.108 653 174.246 653 174.384 653C174.522 653 174.659 653 174.797 653C174.935 653 175.073 653 175.211 653C175.349 653 175.487 653 175.626 653C175.764 653 175.902 653 176.04 653C176.179 653 176.317 653 176.456 653C176.594 653 176.733 653 176.871 653C177.01 653 177.149 653 177.287 653C177.426 653 177.565 653 177.704 653C177.843 653 177.982 653 178.121 653C178.26 653 178.399 653 178.538 653C178.677 653 178.817 653 178.956 653C179.095 653 179.235 653 179.374 653C179.513 653 179.653 653 179.793 653C179.932 653 180.072 653 180.212 653C180.351 653 180.491 653 180.631 653C180.771 653 180.911 653 181.051 653C181.191 653 181.331 653 181.471 653C181.611 653 181.751 653 181.891 653C182.032 653 182.172 653 182.312 653C182.453 653 182.593 653 182.734 653C182.874 653 183.015 653 183.155 653C183.296 653 183.437 653 183.577 653C183.718 653 183.859 653 184 653C184.141 653 184.282 653 184.423 653C184.564 653 184.705 653 184.846 653C184.987 653 185.128 653 185.27 653C185.411 653 185.552 653 185.694 653C185.835 653 185.976 653 186.118 653C186.259 653 186.401 653 186.543 653C186.684 653 186.826 653 186.968 653C187.11 653 187.251 653 187.393 653C187.535 653 187.677 653 187.819 653C187.961 653 188.103 653 188.245 653C188.387 653 188.53 653 188.672 653C188.814 653 188.956 653 189.099 653C189.241 653 189.384 653 189.526 653C189.669 653 189.811 653 189.954 653C190.096 653 190.239 653 190.382 653C190.524 653 190.667 653 190.81 653C190.953 653 191.096 653 191.239 653C191.382 653 191.525 653 191.668 653C191.811 653 191.954 653 192.097 653C192.24 653 192.383 653 192.527 653C192.67 653 192.813 653 192.957 653C193.1 653 193.244 653 193.387 653C193.531 653 193.674 653 193.818 653C193.961 653 194.105 653 194.249 653C194.393 653 194.536 653 194.68 653C194.824 653 194.968 653 195.112 653C195.256 653 195.4 653 195.544 653C195.688 653 195.832 653 195.976 653C196.12 653 196.265 653 196.409 653C196.553 653 196.698 653 196.842 653C196.986 653 197.131 653 197.275 653C197.42 653 197.564 653 197.709 653C197.853 653 197.998 653 198.143 653C198.287 653 198.432 653 198.577 653C198.722 653 198.867 653 199.011 653C199.156 653 199.301 653 199.446 653C199.591 653 199.736 653 199.881 653C200.027 653 200.172 653 200.317 653C200.462 653 200.607 653 200.753 653C200.898 653 201.043 653 201.189 653C201.334 653 201.479 653 201.625 653C201.77 653 201.916 653 202.062 653C202.839 653 202.158 653 202.936 653C203.081 653 203.227 653 203.373 653C203.519 653 203.665 653 203.811 653C203.957 653 204.103 653 204.249 653C204.395 653 204.541 653 204.687 653C204.833 653 204.98 653 205.126 653C205.272 653 205.418 653 205.565 653C205.711 653 205.857 653 206.004 653C206.15 653 206.297 653 206.443 653C206.59 653 206.736 653 206.883 653C207.029 653 207.176 653 207.323 653C207.469 653 207.616 653 207.763 653C207.91 653 208.057 653 208.203 653C208.35 653 208.497 653 208.644 653C208.791 653 208.938 653 209.085 653C209.232 653 209.379 653 209.526 653C209.673 653 209.821 653 209.968 653C210.115 653 210.262 653 210.41 653C210.557 653 210.704 653 210.852 653C210.999 653 211.146 653 211.294 653C211.441 653 211.589 653 211.736 653C211.884 653 212.031 653 212.179 653C212.326 653 212.474 653 212.622 653C212.77 653 212.917 653 213.065 653C213.213 653 213.361 653 213.508 653C213.656 653 213.804 653 213.952 653C214.1 653 214.248 653 214.396 653C214.544 653 214.692 653 214.84 653C214.988 653 215.136 653 215.284 653C215.432 653 215.581 653 215.729 653C215.877 653 216.025 653 216.174 653C216.322 653 216.47 653 216.619 653C216.767 653 216.915 653 217.064 653C217.212 653 217.361 653 217.509 653C217.658 653 217.806 653 217.955 653C218.103 653 218.252 653 218.401 653C218.549 653 218.698 653 218.847 653C218.995 653 219.144 653 219.293 653C219.442 653 219.591 653 219.739 653C219.888 653 220.037 653 220.186 653C220.335 653 220.484 653 220.633 653C220.782 653 220.931 653 221.08 653C221.229 653 221.378 653 221.527 653C221.676 653 221.825 653 221.975 653C222.124 653 222.273 653 222.422 653C222.571 653 222.721 653 222.87 653C223.019 653 223.169 653 223.318 653C223.467 653 223.617 653 223.766 653C223.916 653 224.065 653 224.214 653C224.364 653 224.513 653 224.663 653C224.813 653 224.962 653 225.112 653C225.261 653 225.411 653 225.561 653C225.71 653 225.86 653 226.01 653C226.159 653 226.309 653 226.459 653C226.609 653 226.758 653 226.908 653C227.058 653 227.208 653 227.358 653C227.508 653 227.658 653 227.808 653C227.957 653 228.107 653 228.257 653C228.407 653 228.557 653 228.707 653C228.857 653 229.008 653 229.158 653C229.308 653 229.458 653 229.608 653C229.758 653 229.908 653 230.058 653C230.209 653 230.359 653 230.509 653C230.659 653 230.81 653 230.96 653C231.11 653 231.261 653 231.411 653C231.561 653 231.712 653 231.862 653C232.012 653 232.163 653 232.313 653C232.464 653 232.614 653 232.765 653C232.915 653 233.066 653 233.216 653C233.367 653 233.517 653 233.668 653C233.818 653 233.969 653 234.119 653C234.27 653 234.421 653 234.571 653C234.722 653 234.873 653 235.023 653C235.174 653 235.325 653 235.476 653C235.626 653 235.777 653 235.928 653C236.079 653 236.229 653 236.38 653C236.531 653 236.682 653 236.833 653C236.984 653 237.134 653 237.285 653C237.436 653 237.587 653 237.738 653C237.889 653 238.04 653 238.191 653C238.342 653 238.493 653 238.644 653C238.795 653 238.946 653 239.097 653C239.248 653 239.399 653 239.55 653C239.701 653 239.852 653 240.003 653C240.155 653 240.306 653 240.457 653C240.608 653 240.759 653 240.91 653C241.061 653 241.213 653 241.364 653C241.515 653 241.666 653 241.818 653C241.969 653 242.12 653 242.271 653C242.423 653 242.574 653 242.725 653C242.876 653 243.028 653 243.179 653C243.33 653 243.482 653 243.633 653C243.785 653 243.936 653 244.087 653C244.239 653 244.39 653 244.541 653C244.693 653 244.844 653 244.996 653C245.147 653 245.299 653 245.45 653C245.602 653 245.753 653 245.905 653C246.056 653 246.208 653 246.359 653C246.511 653 246.662 653 246.814 653C246.965 653 247.117 653 247.268 653C247.42 653 247.571 653 247.723 653C247.874 653 248.026 653 248.178 653C248.329 653 248.481 653 248.633 653C248.784 653 248.936 653 249.087 653C249.239 653 249.391 653 249.542 653C249.694 653 249.846 653 249.997 653C250.149 653 250.301 653 250.452 653C250.604 653 250.756 653 250.907 653C251.059 653 251.211 653 251.363 653C251.514 653 251.666 653 251.818 653C251.97 653 252.121 653 252.273 653C252.425 653 252.577 653 252.728 653C252.88 653 253.032 653 253.184 653C253.335 653 253.487 653 253.639 653C253.791 653 253.943 653 254.094 653C254.246 653 254.398 653 254.55 653C254.702 653 254.853 653 255.005 653C255.157 653 255.309 653 255.461 653C255.613 653 255.764 653 255.916 653C256.068 653 256.22 653 256.372 653C256.524 653 256.676 653 256.827 653C256.979 653 257.131 653 257.283 653C257.435 653 257.587 653 257.739 653C257.89 653 258.042 653 258.194 653C258.346 653 258.498 653 258.65 653C258.802 653 258.954 653 259.105 653C259.257 653 259.409 653 259.561 653C259.713 653 259.865 653 260.017 653C260.169 653 260.32 653 260.472 653C260.624 653 260.776 653 260.928 653C261.08 653 261.232 653 261.384 653C261.536 653 261.687 653 261.839 653C261.991 653 262.143 653 262.295 653C262.447 653 262.599 653 262.751 653C262.902 653 263.054 653 263.206 653C263.358 653 263.51 653 263.662 653C263.814 653 263.966 653 264.117 653C264.269 653 264.421 653 264.573 653C264.725 653 264.877 653 265.029 653C265.18 653 265.332 653 265.484 653C265.636 653 265.788 653 265.94 653C266.091 653 266.243 653 266.395 653C266.547 653 266.699 653 266.851 653C267.002 653 267.154 653 267.306 653C267.458 653 267.61 653 267.761 653C267.913 653 268.065 653 268.217 653C268.369 653 268.52 653 268.672 653C268.824 653 268.976 653 269.127 653C269.279 653 269.431 653 269.583 653C269.734 653 269.886 653 270.038 653C270.19 653 270.341 653 270.493 653C270.645 653 270.797 653 270.948 653C271.1 653 271.252 653 271.403 653C271.555 653 271.707 653 271.858 653C272.01 653 272.162 653 272.313 653C272.465 653 272.617 653 272.768 653C272.92 653 273.072 653 273.223 653C273.375 653 273.526 653 273.678 653C273.83 653 273.981 653 274.133 653C274.284 653 274.436 653 274.587 653C274.739 653 274.89 653 275.042 653C275.193 653 275.345 653 275.496 653C275.648 653 275.799 653 275.951 653C276.102 653 276.254 653 276.405 653C276.557 653 276.708 653 276.86 653C277.011 653 277.163 653 277.314 653C277.465 653 277.617 653 277.768 653C277.919 653 278.071 653 278.222 653C278.374 653 278.525 653 278.676 653C278.827 653 278.979 653 279.13 653C279.281 653 279.433 653 279.584 653C279.735 653 279.886 653 280.038 653C280.189 653 280.34 653 280.491 653C280.642 653 280.794 653 280.945 653C281.096 653 281.247 653 281.398 653C281.549 653 281.7 653 281.852 653C282.003 653 282.154 653 282.305 653C282.456 653 282.607 653 282.758 653C282.909 653 283.06 653 283.211 653C283.362 653 283.513 653 283.664 653C283.815 653 283.966 653 284.117 653C284.268 653 284.419 653 284.569 653C284.72 653 284.871 653 285.022 653C285.173 653 285.324 653 285.474 653C285.625 653 285.776 653 285.927 653C286.078 653 286.228 653 286.379 653C286.53 653 286.68 653 286.831 653C286.982 653 287.132 653 287.283 653C287.434 653 287.584 653 287.735 653C287.886 653 288.036 653 288.187 653C288.337 653 288.488 653 288.638 653C288.789 653 288.939 653 289.09 653C289.24 653 289.391 653 289.541 653C289.691 653 289.842 653 289.992 653C290.143 653 290.293 653 290.443 653C290.593 653 290.744 653 290.894 653C291.044 653 291.195 653 291.345 653C291.495 653 291.645 653 291.795 653C291.946 653 292.096 653 292.246 653C292.396 653 292.546 653 292.696 653C292.846 653 292.996 653 293.146 653C293.296 653 293.446 653 293.596 653C293.746 653 293.896 653 294.046 653C294.196 653 294.346 653 294.496 653C294.646 653 294.795 653 294.945 653C295.095 653 295.245 653 295.394 653C295.544 653 295.694 653 295.844 653C295.993 653 296.143 653 296.293 653C296.442 653 296.592 653 296.741 653C296.891 653 297.041 653 297.19 653C297.34 653 297.489 653 297.639 653C297.788 653 297.937 653 298.087 653C298.236 653 298.386 653 298.535 653C298.684 653 298.834 653 298.983 653C299.132 653 299.281 653 299.431 653C299.58 653 299.729 653 299.878 653C300.027 653 300.176 653 300.325 653C300.474 653 300.624 653 300.773 653C300.922 653 301.071 653 301.22 653C301.368 653 301.517 653 301.666 653C301.815 653 301.964 653 302.113 653C302.262 653 302.41 653 302.559 653C302.708 653 302.857 653 303.005 653C303.154 653 303.303 653 303.451 653C303.6 653 303.749 653 303.897 653C304.046 653 304.194 653 304.343 653C304.491 653 304.64 653 304.788 653C304.936 653 305.085 653 305.233 653C305.381 653 305.53 653 305.678 653C305.826 653 305.974 653 306.123 653C306.271 653 306.419 653 306.567 653C306.715 653 306.863 653 307.011 653C307.159 653 307.307 653 307.455 653C307.603 653 307.751 653 307.899 653C308.047 653 308.195 653 308.343 653C308.49 653 308.638 653 308.786 653C308.934 653 309.081 653 309.229 653C309.377 653 309.524 653 309.672 653C309.819 653 309.967 653 310.114 653C310.262 653 310.409 653 310.557 653C310.704 653 310.852 653 310.999 653C311.146 653 311.293 653 311.441 653C311.588 653 311.735 653 311.882 653C312.03 653 312.177 653 312.324 653C312.471 653 312.618 653 312.765 653C312.912 653 313.059 653 313.206 653C313.353 653 313.499 653 313.646 653C313.793 653 313.94 653 314.087 653C314.233 653 314.38 653 314.527 653C314.673 653 314.82 653 314.967 653C315.113 653 315.26 653 315.406 653C315.553 653 315.699 653 315.845 653C315.992 653 316.138 653 316.284 653C316.431 653 316.577 653 316.723 653C316.869 653 317.016 653 317.162 653C317.308 653 317.454 653 317.6 653C317.746 653 317.892 653 318.038 653C318.184 653 318.33 653 318.475 653C318.621 653 318.767 653 318.913 653C319.059 653 319.204 653 319.35 653C319.495 653 319.641 653 319.787 653C319.932 653 320.078 653 320.223 653C320.369 653 320.514 653 320.659 653C320.805 653 320.95 653 321.095 653C321.24 653 321.386 653 321.531 653C321.676 653 321.821 653 321.966 653C322.111 653 322.256 653 322.401 653C322.546 653 322.691 653 322.836 653C322.981 653 323.126 653 323.27 653C323.415 653 323.56 653 323.704 653C323.849 653 323.994 653 324.138 653C324.283 653 324.427 653 324.572 653C324.716 653 324.86 653 325.005 653C325.149 653 325.293 653 325.438 653C325.582 653 325.726 653 325.87 653C326.014 653 326.158 653 326.302 653C326.446 653 326.59 653 326.734 653C326.878 653 327.022 653 327.166 653C327.31 653 327.453 653 327.597 653C327.741 653 327.884 653 328.028 653C328.171 653 328.315 653 328.458 653C328.602 653 328.745 653 328.889 653C329.032 653 329.175 653 329.319 653C329.462 653 329.605 653 329.748 653C329.891 653 330.034 653 330.177 653C330.32 653 330.463 653 330.606 653C330.749 653 330.892 653 331.035 653C331.178 653 331.32 653 331.463 653C331.606 653 331.748 653 331.891 653C332.033 653 332.176 653 332.318 653C332.461 653 332.603 653 332.745 653C332.888 653 333.03 653 333.172 653C333.314 653 333.457 653 333.599 653C333.741 653 333.883 653 334.025 653C334.167 653 334.309 653 334.45 653C334.592 653 334.734 653 334.876 653C335.017 653 335.159 653 335.301 653C335.442 653 335.584 653 335.725 653C335.867 653 336.008 653 336.149 653C336.291 653 336.432 653 336.573 653C336.714 653 336.856 653 336.997 653C337.138 653 337.279 653 337.42 653C337.561 653 337.702 653 337.843 653C337.983 653 338.124 653 338.265 653C338.406 653 338.546 653 338.687 653C338.827 653 338.968 653 339.108 653C339.249 653 339.389 653 339.53 653C339.67 653 339.81 653 339.95 653C340.09 653 340.231 653 340.371 653C340.511 653 340.651 653 340.791 653C340.931 653 341.07 653 341.21 653C341.35 653 341.49 653 341.629 653C341.769 653 341.909 653 342.048 653C342.188 653 342.327 653 342.467 653C342.606 653 342.745 653 342.885 653C343.024 653 343.163 653 343.302 653C343.441 653 343.58 653 343.719 653C343.858 653 343.997 653 344.136 653C344.275 653 344.414 653 344.552 653C344.691 653 344.83 653 344.968 653C345.107 653 345.245 653 345.384 653C345.522 653 345.661 653 345.799 653C345.937 653 346.075 653 346.213 653C346.352 653 346.49 653 346.628 653C346.766 653 346.904 653 347.041 653C347.179 653 347.317 653 347.455 653C347.592 653 347.73 653 347.868 653C348.005 653 348.143 653 348.28 653C348.418 653 348.555 653 348.692 653C348.829 653 348.967 653 349.104 653C349.241 653 349.378 653 349.515 653C349.652 653 349.789 653 349.926 653C350.063 653 350.199 653 350.336 653C350.473 653 350.609 653 350.746 653C350.882 653 351.019 653 351.155 653C351.292 653 351.428 653 351.564 653C351.7 653 351.836 653 351.973 653C352.109 653 352.245 653 352.381 653C352.516 653 352.652 653 352.788 653C352.924 653 353.06 653 353.195 653C353.331 653 353.466 653 353.602 653C353.737 653 353.873 653 354.008 653C354.143 653 354.278 653 354.414 653C354.549 653 354.684 653 354.819 653C354.954 653 355.089 653 355.224 653C355.358 653 355.493 653 355.628 653C355.763 653 355.897 653 356.032 653C356.166 653 356.301 653 356.435 653C356.569 653 356.704 653 356.838 653C356.972 653 357.106 653 357.24 653C357.374 653 357.508 653 357.642 653C357.776 653 357.91 653 358.043 653C358.177 653 358.311 653 358.444 653C358.578 653 358.711 653 358.845 653C358.978 653 359.111 653 359.244 653C359.378 653 359.511 653 359.644 653C359.777 653 359.91 653 360.043 653C360.176 653 360.308 653 360.441 653C360.574 653 360.706 653 360.839 653C360.972 653 361.104 653 361.236 653C361.369 653 361.501 653 361.633 653C361.765 653 361.898 653 362.03 653C362.162 653 362.294 653 362.425 653C362.557 653 362.689 653 362.821 653C362.952 653 363.084 653 363.216 653C363.347 653 363.479 653 363.61 653C363.741 653 363.872 653 364.004 653C364.135 653 364.266 653 364.397 653C364.528 653 364.659 653 364.79 653C364.92 653 365.051 653 365.182 653C365.312 653 365.443 653 365.573 653C365.704 653 365.834 653 365.965 653C366.095 653 366.225 653 366.355 653C366.485 653 366.615 653 366.745 653C366.875 653 367.005 653 367.135 653C367.265 653 367.394 653 367.524 653C367.653 653 367.783 653 367.912 653C368.042 653 368.171 653 368.3 653C368.429 653 368.558 653 368.687 653C368.816 653 368.945 653 369.074 653C369.203 653 369.332 653 369.46 653C369.589 653 369.718 653 369.846 653C369.975 653 370.103 653 370.231 653C370.914 653 370.318 653 371 653C371.128 653 371.256 653 371.383 653C371.511 653 371.639 653 371.766 653C371.894 653 372.021 653 372.148 653C372.276 653 372.403 653 372.53 653C372.657 653 372.784 653 372.911 653C373.038 653 373.165 653 373.292 653C373.419 653 373.545 653 373.672 653C373.798 653 373.925 653 374.051 653C374.178 653 374.304 653 374.43 653C374.556 653 374.682 653 374.808 653C374.934 653 375.06 653 375.186 653C375.312 653 375.438 653 375.563 653C375.689 653 375.814 653 375.94 653C376.065 653 376.19 653 376.316 653C376.441 653 376.566 653 376.691 653C376.816 653 376.941 653 377.066 653C377.19 653 377.315 653 377.44 653C377.564 653 377.689 653 377.813 653C377.938 653 378.062 653 378.186 653C378.31 653 378.435 653 378.559 653C378.683 653 378.806 653 378.93 653C379.054 653 379.178 653 379.301 653C379.425 653 379.548 653 379.672 653C379.795 653 379.918 653 380.042 653C380.165 653 380.288 653 380.411 653C380.534 653 380.657 653 380.78 653C380.902 653 381.025 653 381.148 653C381.27 653 381.393 653 381.515 653C381.637 653 381.76 653 381.882 653C382.004 653 382.126 653 382.248 653C382.37 653 382.492 653 382.613 653C382.735 653 382.857 653 382.978 653C383.1 653 383.221 653 383.342 653C383.464 653 383.585 653 383.706 653C383.827 653 383.948 653 384.069 653C384.19 653 384.311 653 384.431 653C384.552 653 384.672 653 384.793 653C384.913 653 385.034 653 385.154 653C385.274 653 385.394 653 385.514 653C385.634 653 385.754 653 385.874 653C385.994 653 386.114 653 386.233 653C386.353 653 386.472 653 386.592 653V637ZM121.623 614.127C104.546 580.181 100.028 534.644 100 496.857L84.0001 496.869C84.0288 535.27 88.5162 583.92 107.329 621.317L121.623 614.127ZM163.429 438H386.089V422H163.429V438ZM166.611 637C147.002 637 129.295 629.377 121.623 614.127L107.329 621.317C118.765 644.049 143.703 653 166.611 653V637ZM430.545 613.929C423.62 629.273 406.225 637 386.592 637V653C409.476 653 434.564 643.92 445.128 620.51L430.545 613.929ZM466.757 500.865C468.018 455.668 430.117 422 386.089 422V438C422.315 438 451.74 465.394 450.763 500.419L466.757 500.865ZM100 496.857C99.9752 463.398 128.574 438 163.429 438V422C121.161 422 83.9676 453.205 84.0001 496.869L100 496.857Z" fill="#150C0C" mask="url(#path-2-inside-1_3_1552)"/>
<mask id="path-4-inside-2_3_1552" fill="white">
<path fill-rule="evenodd" clip-rule="evenodd" d="M231.011 433.678C231.037 433.032 231.113 432.384 231.238 431.74C237.164 401.187 237.164 361 237.164 361H313.45C313.45 361 313.45 401.187 319.376 431.74C319.786 433.855 319.668 436.018 319.005 437.98C306.887 443.763 293.322 447 279 447C261.442 447 245.021 442.134 231.011 433.678Z"/>
</mask>
<path fill-rule="evenodd" clip-rule="evenodd" d="M231.011 433.678C231.037 433.032 231.113 432.384 231.238 431.74C237.164 401.187 237.164 361 237.164 361H313.45C313.45 361 313.45 401.187 319.376 431.74C319.786 433.855 319.668 436.018 319.005 437.98C306.887 443.763 293.322 447 279 447C261.442 447 245.021 442.134 231.011 433.678Z" fill="#DEB3A3"/>
<path d="M231.238 431.74L239.092 433.263H239.092L231.238 431.74ZM231.011 433.678L223.017 433.35L222.823 438.081L226.877 440.527L231.011 433.678ZM237.164 361V353H229.164L229.164 361L237.164 361ZM313.45 361L321.45 361V353H313.45V361ZM319.376 431.74L311.522 433.263V433.263L319.376 431.74ZM319.005 437.98L322.451 445.2L325.501 443.744L326.584 440.542L319.005 437.98ZM223.384 430.216C223.184 431.25 223.061 432.298 223.017 433.35L239.004 434.006C239.014 433.766 239.042 433.517 239.092 433.263L223.384 430.216ZM237.164 361C229.164 361 229.164 361 229.164 360.999C229.164 360.999 229.164 360.999 229.164 361C229.164 361 229.164 361.001 229.164 361.003C229.164 361.006 229.164 361.012 229.164 361.02C229.164 361.036 229.164 361.062 229.164 361.097C229.164 361.168 229.163 361.276 229.163 361.42C229.161 361.709 229.159 362.142 229.153 362.707C229.142 363.836 229.119 365.494 229.073 367.582C228.982 371.761 228.8 377.653 228.435 384.486C227.701 398.221 226.243 415.478 223.384 430.216L239.092 433.263C242.159 417.449 243.664 399.336 244.412 385.339C244.788 378.306 244.976 372.242 245.07 367.931C245.117 365.774 245.14 364.054 245.152 362.866C245.158 362.273 245.161 361.812 245.163 361.497C245.163 361.34 245.164 361.218 245.164 361.135C245.164 361.093 245.164 361.061 245.164 361.039C245.164 361.027 245.164 361.018 245.164 361.012C245.164 361.009 245.164 361.006 245.164 361.004C245.164 361.003 245.164 361.002 245.164 361.002C245.164 361.001 245.164 361 237.164 361ZM313.45 353H237.164V369H313.45V353ZM327.229 430.216C324.371 415.478 322.913 398.221 322.179 384.486C321.814 377.653 321.632 371.761 321.541 367.582C321.495 365.494 321.472 363.836 321.461 362.707C321.455 362.142 321.453 361.709 321.451 361.42C321.451 361.276 321.45 361.168 321.45 361.097C321.45 361.062 321.45 361.036 321.45 361.02C321.45 361.012 321.45 361.006 321.45 361.003C321.45 361.001 321.45 361 321.45 361C321.45 360.999 321.45 360.999 321.45 360.999C321.45 361 321.45 361 313.45 361C305.45 361 305.45 361.001 305.45 361.002C305.45 361.002 305.45 361.003 305.45 361.004C305.45 361.006 305.45 361.009 305.45 361.012C305.45 361.018 305.45 361.027 305.45 361.039C305.45 361.061 305.45 361.093 305.45 361.135C305.45 361.218 305.451 361.34 305.451 361.497C305.453 361.812 305.456 362.273 305.462 362.866C305.474 364.054 305.497 365.774 305.544 367.931C305.638 372.242 305.826 378.306 306.202 385.339C306.95 399.336 308.455 417.449 311.522 433.263L327.229 430.216ZM326.584 440.542C327.723 437.172 327.885 433.594 327.229 430.216L311.522 433.263C311.688 434.117 311.613 434.865 311.427 435.417L326.584 440.542ZM315.559 430.76C304.495 436.04 292.104 439 279 439V455C294.539 455 309.28 451.485 322.451 445.2L315.559 430.76ZM279 439C262.94 439 247.942 434.554 235.145 426.829L226.877 440.527C242.099 449.715 259.945 455 279 455V439Z" fill="#150C0C" mask="url(#path-4-inside-2_3_1552)"/>
<path d="M275.081 446.87C275.464 445.761 274.814 444.561 273.675 444.277L232.747 434.044C232.588 434.005 232.425 433.985 232.261 433.985L210.192 433.985C208.416 433.985 207.521 436.127 208.769 437.39L258.06 487.302C259.101 488.357 260.889 487.951 261.373 486.55L275.081 446.87Z" fill="#334B71" stroke="#150C0C" stroke-width="8"/>
<path d="M283.847 446.87C283.464 445.761 284.114 444.561 285.252 444.277L326.181 434.044C326.34 434.005 326.503 433.985 326.666 433.985L348.735 433.985C350.511 433.985 351.406 436.127 350.158 437.39L300.868 487.302C299.826 488.357 298.039 487.951 297.555 486.55L283.847 446.87Z" fill="#334B71" stroke="#150C0C" stroke-width="8"/>
<circle cx="279" cy="484" r="5" fill="#C8D3E6"/>
<circle cx="279" cy="539" r="5" fill="#C8D3E6"/>
<path d="M342 522C342 516.477 346.477 512 352 512H399C404.523 512 409 516.477 409 522V526.372V573C409 578.523 404.523 583 399 583H352C346.477 583 342 578.523 342 573V526.372V522Z" stroke="#150C0C" stroke-width="6"/>
<path d="M425 233C425 238.846 423.218 243.984 420.528 247.571C417.839 251.156 414.429 253 411 253C407.571 253 404.161 251.156 401.472 247.571C398.782 243.984 397 238.846 397 233C397 227.154 398.782 222.016 401.472 218.429C404.161 214.844 407.571 213 411 213C414.429 213 417.839 214.844 420.528 218.429C423.218 222.016 425 227.154 425 233Z" fill="#DEB3A3" stroke="#150C0C" stroke-width="8"/>
<path d="M158 233C158 238.846 156.218 243.984 153.528 247.571C150.839 251.156 147.429 253 144 253C140.571 253 137.161 251.156 134.472 247.571C131.782 243.984 130 238.846 130 233C130 227.154 131.782 222.016 134.472 218.429C137.161 214.844 140.571 213 144 213C147.429 213 150.839 214.844 153.528 218.429C156.218 222.016 158 227.154 158 233Z" fill="#DEB3A3" stroke="#150C0C" stroke-width="8"/>
<path d="M276.004 102L275.996 102C275.953 102 275.94 102 275.924 102L276.004 102ZM276.004 102L276.172 102C345.949 102.143 401.527 144.798 401.527 198.495C401.527 211.008 402.301 220.692 403.195 231.89C403.389 234.321 403.589 236.823 403.787 239.441C404.903 254.136 406 268.603 406 283.137C406 313.713 387.228 340.809 361.176 360.493C335.13 380.172 302.524 391.865 276.278 391.999L276.25 391.999M276.004 102L276.25 391.999M276.25 391.999L276.221 392M276.25 391.999L276.221 392M276.221 392C276.204 392 276.189 392 276.175 392L276.008 392H276M276.221 392L276 392M276 392H275.992M276 392H275.992M275.992 392L275.825 392C275.811 392 275.796 392 275.779 392L275.75 391.999M275.992 392L275.75 391.999M275.75 391.999L275.722 391.999M275.75 391.999L275.722 391.999M275.722 391.999C249.476 391.865 216.87 380.172 190.824 360.493M275.722 391.999L190.824 360.493M190.824 360.493C164.772 340.809 146 313.713 146 283.137M190.824 360.493L146 283.137M146 283.137C146 268.603 147.097 254.136 148.213 239.441M146 283.137L148.213 239.441M148.213 239.441C148.411 236.823 148.611 234.321 148.805 231.89M148.213 239.441L148.805 231.89M148.805 231.89C149.699 220.692 150.473 211.008 150.473 198.495M148.805 231.89L150.473 198.495M150.473 198.495C150.473 144.798 206.052 102.143 275.829 102L150.473 198.495Z" fill="#D9A392" stroke="#150C0C" stroke-width="8"/>
<mask id="path-14-inside-3_3_1552" fill="white">
<path fill-rule="evenodd" clip-rule="evenodd" d="M408.244 72.5808C457.618 51.1738 335.679 4.00855 251.958 40.3073C233.479 48.3192 217.518 58.1899 204.769 68.7702C204.254 68.7536 203.737 68.7452 203.219 68.7452C164.438 68.7452 133 115.638 133 173.484C133 201.12 140.176 226.257 151.901 244.974C152.252 240.265 152.672 235.557 153.091 230.842C153.28 228.719 153.469 226.697 153.653 224.739C154.492 215.768 155.206 208.141 155.206 198.243C155.206 152.659 210.143 117.751 276.835 117.637C276.89 117.637 276.945 117.636 277 117.636L277.165 117.636C343.857 117.751 398.795 152.659 398.795 198.243C398.795 208.141 399.508 215.768 400.347 224.739C400.531 226.697 400.72 228.719 400.909 230.842C401.795 240.793 402.678 250.713 402.929 260.673C414.017 240.551 421 211.243 421 178.613C421 137.031 409.659 100.843 392.934 82.1849C397.209 78.4561 402.212 75.1961 408.244 72.5808Z"/>
</mask>
<path fill-rule="evenodd" clip-rule="evenodd" d="M408.244 72.5808C457.618 51.1738 335.679 4.00855 251.958 40.3073C233.479 48.3192 217.518 58.1899 204.769 68.7702C204.254 68.7536 203.737 68.7452 203.219 68.7452C164.438 68.7452 133 115.638 133 173.484C133 201.12 140.176 226.257 151.901 244.974C152.252 240.265 152.672 235.557 153.091 230.842C153.28 228.719 153.469 226.697 153.653 224.739C154.492 215.768 155.206 208.141 155.206 198.243C155.206 152.659 210.143 117.751 276.835 117.637C276.89 117.637 276.945 117.636 277 117.636L277.165 117.636C343.857 117.751 398.795 152.659 398.795 198.243C398.795 208.141 399.508 215.768 400.347 224.739C400.531 226.697 400.72 228.719 400.909 230.842C401.795 240.793 402.678 250.713 402.929 260.673C414.017 240.551 421 211.243 421 178.613C421 137.031 409.659 100.843 392.934 82.1849C397.209 78.4561 402.212 75.1961 408.244 72.5808Z" fill="#4B301C"/>
<path d="M251.958 40.3073L255.141 47.6471L251.958 40.3073ZM408.244 72.5808L411.426 79.9206V79.9206L408.244 72.5808ZM204.769 68.7702L204.511 76.766L207.543 76.864L209.878 74.9263L204.769 68.7702ZM151.901 244.974L145.121 249.221L158.063 269.882L159.879 245.57L151.901 244.974ZM153.091 230.842L145.123 230.133L153.091 230.842ZM153.653 224.739L161.618 225.484L153.653 224.739ZM276.835 117.637V109.637L276.821 109.637L276.835 117.637ZM277 117.636L276.992 125.636L277.004 125.636L277 117.636ZM277.165 117.636L277.179 109.636L277.17 109.636H277.161L277.165 117.636ZM400.347 224.739L408.313 223.994V223.994L400.347 224.739ZM400.909 230.842L392.94 231.551V231.551L400.909 230.842ZM402.929 260.673L394.932 260.875L395.678 290.411L409.936 264.534L402.929 260.673ZM392.934 82.1849L387.676 76.1562L381.565 81.4865L386.977 87.5247L392.934 82.1849ZM255.141 47.6471C294.82 30.4433 344.235 32.9091 377.815 42.497C386.13 44.8711 393.281 47.6303 398.927 50.5149C404.687 53.4583 408.39 56.2844 410.315 58.5637C411.246 59.6662 411.538 60.3793 411.617 60.6678C411.652 60.7952 411.644 60.8282 411.645 60.7916C411.646 60.7503 411.657 60.7258 411.649 60.7458C411.577 60.9383 410.576 62.8499 405.062 65.241L411.426 79.9206C418.255 76.9599 424.244 72.7149 426.627 66.3724C429.263 59.3564 426.461 52.8858 422.54 48.2412C418.668 43.6557 412.857 39.6652 406.206 36.267C399.441 32.81 391.282 29.7026 382.208 27.1118C346.232 16.84 292.817 13.8725 248.776 32.9675L255.141 47.6471ZM209.878 74.9263C222 64.8659 237.303 55.381 255.141 47.6471L248.776 32.9675C229.656 41.2574 213.035 51.5139 199.66 62.6141L209.878 74.9263ZM203.219 76.7452C203.651 76.7452 204.081 76.7522 204.511 76.766L205.027 60.7744C204.426 60.7549 203.823 60.7452 203.219 60.7452V76.7452ZM141 173.484C141 145.929 148.502 121.343 160.212 103.877C171.956 86.3595 187.315 76.7452 203.219 76.7452V60.7452C180.343 60.7452 160.592 74.5774 146.922 94.9675C133.217 115.41 125 143.193 125 173.484H141ZM158.68 240.727C147.846 223.432 141 199.803 141 173.484H125C125 202.438 132.506 229.083 145.121 249.221L158.68 240.727ZM159.879 245.57C160.225 240.927 160.639 236.276 161.06 231.551L145.123 230.133C144.704 234.838 144.28 239.603 143.923 244.379L159.879 245.57ZM161.06 231.551C161.247 229.449 161.435 227.444 161.618 225.484L145.687 223.994C145.504 225.95 145.314 227.989 145.123 230.133L161.06 231.551ZM161.618 225.484C162.457 216.519 163.206 208.556 163.206 198.243H147.206C147.206 207.727 146.527 215.018 145.687 223.994L161.618 225.484ZM163.206 198.243C163.206 178.977 174.787 161.063 195.391 147.583C215.968 134.121 244.803 125.692 276.849 125.637L276.821 109.637C242.176 109.696 210.196 118.778 186.631 134.194C163.093 149.593 147.206 171.925 147.206 198.243H163.206ZM276.835 125.637C276.989 125.637 276.893 125.636 276.992 125.636L277.008 109.636C276.967 109.636 276.928 109.637 276.901 109.637C276.87 109.637 276.852 109.637 276.835 109.637V125.637ZM277.004 125.636L277.169 125.636L277.161 109.636L276.996 109.636L277.004 125.636ZM277.151 125.636C309.197 125.692 338.032 134.121 358.609 147.583C379.213 161.063 390.795 178.977 390.795 198.243H406.795C406.795 171.925 390.907 149.593 367.369 134.194C343.804 118.778 311.824 109.696 277.179 109.636L277.151 125.636ZM390.795 198.243C390.795 208.556 391.543 216.519 392.382 225.484L408.313 223.994C407.473 215.018 406.795 207.727 406.795 198.243H390.795ZM392.382 225.484C392.566 227.444 392.753 229.449 392.94 231.551L408.877 230.133C408.686 227.989 408.496 225.949 408.313 223.994L392.382 225.484ZM392.94 231.551C393.83 241.544 394.688 251.211 394.932 260.875L410.927 260.471C410.668 250.214 409.759 240.041 408.877 230.133L392.94 231.551ZM413 178.613C413 210.249 406.206 238.149 395.922 256.813L409.936 264.534C421.828 242.952 429 212.237 429 178.613H413ZM386.977 87.5247C401.862 104.13 413 138.04 413 178.613H429C429 136.021 417.457 97.5563 398.891 76.8451L386.977 87.5247ZM405.062 65.241C398.261 68.1896 392.56 71.8958 387.676 76.1562L398.193 88.2136C401.858 85.0164 406.163 82.2025 411.426 79.9206L405.062 65.241Z" fill="black" mask="url(#path-14-inside-3_3_1552)"/>
<path d="M332.319 185.126C356 180 373.381 186.209 386.369 192.387C392.599 195.351 396.18 202.819 387.21 199.99C374.5 195.981 354.5 194 338.203 198.189C332.319 199.701 322.5 187.252 332.319 185.126Z" fill="#4B301C"/>
<path d="M224.37 185.126C200.689 180 183.308 186.209 170.32 192.387C164.09 195.351 160.51 202.819 169.48 199.99C182.189 195.981 202.189 194 218.486 198.189C224.37 199.701 234.189 187.252 224.37 185.126Z" fill="#4B301C"/>
<path d="M216 243C216 249.551 207.941 259 198 259C188.059 259 180 251.837 180 243C180 234.163 188.059 227 198 227C207.941 227 216 236.449 216 243Z" fill="#150C0C"/>
<path d="M335 243C335 249.551 343.059 259 353 259C362.941 259 371 251.837 371 243C371 234.163 362.941 227 353 227C343.059 227 335 236.449 335 243Z" fill="#150C0C"/>
<ellipse cx="350" cy="237" rx="4" ry="3" fill="white" fill-opacity="0.9"/>
<ellipse cx="192" cy="237" rx="4" ry="3" fill="white" fill-opacity="0.9"/>
<ellipse cx="350.5" cy="259.5" rx="16.5" ry="12.5" fill="#C98570"/>
<ellipse cx="200.5" cy="259.5" rx="16.5" ry="12.5" fill="#C98570"/>
<mask id="path-24-inside-4_3_1552" fill="white">
<path fill-rule="evenodd" clip-rule="evenodd" d="M145.107 253.588C141.961 263.613 136 286.072 136 312.306C136 368.92 202.765 414.782 275 414.782V414.782C347.235 414.782 414 368.92 414 312.306C414 286.072 408.039 263.613 404.893 253.588C404.32 251.763 401.741 251.798 401.057 253.585C396.368 265.839 383.081 294 360 294C346.077 294 334.589 289.233 322.457 284.199C308.882 278.566 294.501 272.599 275 272.599V272.599C255.499 272.599 241.118 278.566 227.543 284.199C215.411 289.233 203.923 294 190 294C166.919 294 153.632 265.839 148.943 253.585C148.259 251.798 145.68 251.762 145.107 253.588Z"/>
</mask>
<path fill-rule="evenodd" clip-rule="evenodd" d="M145.107 253.588C141.961 263.613 136 286.072 136 312.306C136 368.92 202.765 414.782 275 414.782V414.782C347.235 414.782 414 368.92 414 312.306C414 286.072 408.039 263.613 404.893 253.588C404.32 251.763 401.741 251.798 401.057 253.585C396.368 265.839 383.081 294 360 294C346.077 294 334.589 289.233 322.457 284.199C308.882 278.566 294.501 272.599 275 272.599V272.599C255.499 272.599 241.118 278.566 227.543 284.199C215.411 289.233 203.923 294 190 294C166.919 294 153.632 265.839 148.943 253.585C148.259 251.798 145.68 251.762 145.107 253.588Z" fill="#4B301C"/>
<path d="M145.107 253.588L137.474 251.193L137.474 251.193L145.107 253.588ZM275 414.782H283V406.782H275V414.782ZM275 414.782H267V422.782H275V414.782ZM404.893 253.588L397.26 255.983L397.26 255.984L404.893 253.588ZM401.057 253.585L408.529 256.444L408.529 256.444L401.057 253.585ZM322.457 284.199L319.391 291.588L322.457 284.199ZM275 272.599H267V280.599H275V272.599ZM275 272.599H283V264.599H275V272.599ZM227.543 284.199L224.477 276.81L227.543 284.199ZM148.943 253.585L141.471 256.444L141.471 256.444L148.943 253.585ZM144 312.306C144 287.189 149.725 265.591 152.74 255.983L137.474 251.193C134.197 261.635 128 284.955 128 312.306H144ZM275 406.782C240.489 406.782 207.39 395.803 183.09 378.285C158.738 360.729 144 337.269 144 312.306H128C128 343.957 146.645 371.735 173.733 391.264C200.874 410.83 237.276 422.782 275 422.782V406.782ZM267 414.782V414.782H283V414.782H267ZM275 422.782C312.724 422.782 349.126 410.83 376.267 391.264C403.355 371.735 422 343.957 422 312.306H406C406 337.269 391.262 360.729 366.91 378.285C342.61 395.803 309.511 406.782 275 406.782V422.782ZM422 312.306C422 284.955 415.803 261.635 412.526 251.193L397.26 255.984C400.275 265.591 406 287.19 406 312.306H422ZM412.526 251.193C411.05 246.491 406.805 244.213 402.976 244.232C399.237 244.251 395.231 246.424 393.585 250.726L408.529 256.444C407.566 258.959 405.192 260.221 403.057 260.232C400.833 260.243 398.163 258.86 397.26 255.983L412.526 251.193ZM393.585 250.726C391.363 256.534 387.216 265.772 381.156 273.419C375.026 281.154 367.992 286 360 286V302C375.09 302 386.239 292.766 393.696 283.357C401.222 273.86 406.062 262.89 408.529 256.444L393.585 250.726ZM360 286C347.899 286 337.822 281.913 325.523 276.81L319.391 291.588C331.357 296.553 344.256 302 360 302V286ZM325.523 276.81C311.942 271.175 296.249 264.599 275 264.599V280.599C292.753 280.599 305.822 285.958 319.391 291.588L325.523 276.81ZM267 272.599V272.599H283V272.599H267ZM230.609 291.588C244.178 285.958 257.247 280.599 275 280.599V264.599C253.751 264.599 238.058 271.174 224.477 276.81L230.609 291.588ZM190 302C205.744 302 218.643 296.553 230.609 291.588L224.477 276.81C212.178 281.913 202.101 286 190 286V302ZM141.471 256.444C143.938 262.89 148.778 273.86 156.304 283.356C163.761 292.766 174.91 302 190 302V286C182.008 286 174.974 281.154 168.844 273.419C162.784 265.772 158.637 256.534 156.415 250.726L141.471 256.444ZM152.74 255.983C151.837 258.86 149.167 260.243 146.943 260.232C144.808 260.221 142.434 258.959 141.471 256.444L156.415 250.726C154.769 246.424 150.763 244.251 147.024 244.232C143.196 244.213 138.95 246.49 137.474 251.193L152.74 255.983Z" fill="black" mask="url(#path-24-inside-4_3_1552)"/>
<path d="M243.071 314.999C251.283 309.08 264.527 305.946 278.004 306.002C291.482 306.058 303.915 309.295 310.812 314.808C311.222 316.541 310.986 318.761 309.812 321.433C308.446 324.543 305.949 327.904 302.554 331.029C295.719 337.323 285.988 342 276.652 342C267.515 342 257.996 336.676 251.228 329.9C247.881 326.549 245.422 323.049 244.096 320.032C243 317.539 242.893 315.915 243.071 314.999Z" fill="#F9ECEC" stroke="#150C0C" stroke-width="8"/>
</g>
<defs>
<clipPath id="clip0_3_1552">
<rect width="556" height="556" rx="276" fill="white"/>
</clipPath>
</defs>
</svg>
