<svg width="75" height="75" viewBox="0 0 75 75" fill="none" xmlns="http://www.w3.org/2000/svg">
<circle cx="37.5" cy="37.5" r="37.5" fill="#334B71"/>
<path d="M55.25 53.1875H20.75C19.9203 53.1875 19.25 53.8578 19.25 54.6875V56.375C19.25 56.5813 19.4187 56.75 19.625 56.75H56.375C56.5813 56.75 56.75 56.5813 56.75 56.375V54.6875C56.75 53.8578 56.0797 53.1875 55.25 53.1875ZM26.0797 49.25C26.1734 49.25 26.2672 49.2406 26.3609 49.2266L34.2453 47.8438C34.3391 47.825 34.4281 47.7828 34.4938 47.7125L54.3641 27.8422C54.4075 27.7988 54.442 27.7473 54.4655 27.6906C54.489 27.6339 54.5011 27.5731 54.5011 27.5117C54.5011 27.4503 54.489 27.3895 54.4655 27.3328C54.442 27.2761 54.4075 27.2246 54.3641 27.1813L46.5734 19.3859C46.4844 19.2969 46.3672 19.25 46.2406 19.25C46.1141 19.25 45.9969 19.2969 45.9078 19.3859L26.0375 39.2562C25.9672 39.3266 25.925 39.4109 25.9062 39.5047L24.5234 47.3891C24.4778 47.6402 24.4941 47.8986 24.5709 48.142C24.6477 48.3854 24.7826 48.6064 24.9641 48.7859C25.2734 49.0859 25.6625 49.25 26.0797 49.25V49.25Z" fill="white"/>
</svg>
