<svg width="519" height="519" viewBox="0 0 519 519" fill="none" xmlns="http://www.w3.org/2000/svg">
<g clip-path="url(#clip0_3_1541)">
<rect width="519" height="519" rx="259.5" fill="#F388A8"/>
<mask id="path-2-inside-1_3_1541" fill="white">
<path d="M88.034 452.703C87.5518 414.21 120.498 386 158.994 386H358.335C398.419 386 432.14 416.482 430.593 456.536C429.321 489.455 424.727 527.634 412.103 556.447C403.651 575.736 382.522 584 361.463 584C304.936 584 223.156 584 159.557 584C138.497 584 117.318 575.883 108.052 556.971C92.8592 525.964 88.4527 486.123 88.034 452.703Z"/>
</mask>
<path d="M88.034 452.703C87.5518 414.21 120.498 386 158.994 386H358.335C398.419 386 432.14 416.482 430.593 456.536C429.321 489.455 424.727 527.634 412.103 556.447C403.651 575.736 382.522 584 361.463 584C304.936 584 223.156 584 159.557 584C138.497 584 117.318 575.883 108.052 556.971C92.8592 525.964 88.4527 486.123 88.034 452.703Z" fill="#71102D"/>
<path d="M159.557 584V592V584ZM108.052 556.971L100.868 560.491L108.052 556.971ZM430.593 456.536L422.599 456.227L430.593 456.536ZM422.599 456.227C421.337 488.901 416.778 525.843 404.775 553.236L419.43 559.657C432.677 529.424 437.306 490.008 438.587 456.844L422.599 456.227ZM361.463 576C361.352 576 361.242 576 361.131 576C361.021 576 360.91 576 360.799 576C360.688 576 360.577 576 360.466 576C360.355 576 360.244 576 360.133 576C360.022 576 359.911 576 359.799 576C359.688 576 359.577 576 359.465 576C359.354 576 359.242 576 359.13 576C359.018 576 358.907 576 358.795 576C358.683 576 358.571 576 358.459 576C358.347 576 358.234 576 358.122 576C358.01 576 357.897 576 357.785 576C357.672 576 357.56 576 357.447 576C357.334 576 357.222 576 357.109 576C356.996 576 356.883 576 356.77 576C356.657 576 356.544 576 356.431 576C356.317 576 356.204 576 356.091 576C355.977 576 355.864 576 355.75 576C355.637 576 355.523 576 355.409 576C355.295 576 355.182 576 355.068 576C354.954 576 354.84 576 354.725 576C354.611 576 354.497 576 354.383 576C354.268 576 354.154 576 354.04 576C353.925 576 353.811 576 353.696 576C353.581 576 353.466 576 353.352 576C353.237 576 353.122 576 353.007 576C352.892 576 352.777 576 352.662 576C352.546 576 352.431 576 352.316 576C352.2 576 352.085 576 351.969 576C351.854 576 351.738 576 351.622 576C351.507 576 351.391 576 351.275 576C351.159 576 351.043 576 350.927 576C350.811 576 350.695 576 350.579 576C350.462 576 350.346 576 350.23 576C350.113 576 349.997 576 349.88 576C349.764 576 349.647 576 349.53 576C349.413 576 349.297 576 349.18 576C349.063 576 348.946 576 348.829 576C348.712 576 348.594 576 348.477 576C348.36 576 348.242 576 348.125 576C348.008 576 347.89 576 347.773 576C347.655 576 347.537 576 347.419 576C347.302 576 347.184 576 347.066 576C346.437 576 346.987 576 346.357 576C346.239 576 346.121 576 346.002 576C345.884 576 345.766 576 345.647 576C345.528 576 345.41 576 345.291 576C345.172 576 345.053 576 344.934 576C344.816 576 344.697 576 344.577 576C344.458 576 344.339 576 344.22 576C344.101 576 343.982 576 343.862 576C343.743 576 343.623 576 343.504 576C343.384 576 343.265 576 343.145 576C343.025 576 342.905 576 342.785 576C342.666 576 342.546 576 342.426 576C342.306 576 342.186 576 342.065 576C341.945 576 341.825 576 341.705 576C341.584 576 341.464 576 341.343 576C341.223 576 341.102 576 340.982 576C340.861 576 340.74 576 340.619 576C340.499 576 340.378 576 340.257 576C340.136 576 340.015 576 339.894 576C339.773 576 339.651 576 339.53 576C339.409 576 339.288 576 339.166 576C339.045 576 338.923 576 338.802 576C338.68 576 338.559 576 338.437 576C338.315 576 338.193 576 338.071 576C337.95 576 337.828 576 337.706 576C337.584 576 337.462 576 337.339 576C337.217 576 337.095 576 336.973 576C336.85 576 336.728 576 336.606 576C336.483 576 336.361 576 336.238 576C336.115 576 335.993 576 335.87 576C335.747 576 335.624 576 335.502 576C335.379 576 335.256 576 335.133 576C335.01 576 334.887 576 334.763 576C334.64 576 334.517 576 334.394 576C334.27 576 334.147 576 334.023 576C333.9 576 333.776 576 333.653 576C333.529 576 333.406 576 333.282 576C333.158 576 333.034 576 332.91 576C332.786 576 332.663 576 332.538 576C332.414 576 332.29 576 332.166 576C332.042 576 331.918 576 331.793 576C331.669 576 331.545 576 331.42 576C331.296 576 331.171 576 331.047 576C330.922 576 330.798 576 330.673 576C330.548 576 330.423 576 330.299 576C330.174 576 330.049 576 329.924 576C329.799 576 329.674 576 329.549 576C329.423 576 329.298 576 329.173 576C329.048 576 328.922 576 328.797 576C328.672 576 328.546 576 328.421 576C328.295 576 328.17 576 328.044 576C327.918 576 327.793 576 327.667 576C327.541 576 327.415 576 327.289 576C327.163 576 327.037 576 326.911 576C326.785 576 326.659 576 326.533 576C326.407 576 326.28 576 326.154 576C326.028 576 325.902 576 325.775 576C325.649 576 325.522 576 325.396 576C325.269 576 325.142 576 325.016 576C324.889 576 324.762 576 324.635 576C324.509 576 324.382 576 324.255 576C324.128 576 324.001 576 323.874 576C323.747 576 323.62 576 323.492 576C323.365 576 323.238 576 323.111 576C322.983 576 322.856 576 322.729 576C322.601 576 322.474 576 322.346 576C322.218 576 322.091 576 321.963 576C321.835 576 321.708 576 321.58 576C321.452 576 321.324 576 321.196 576C321.068 576 320.94 576 320.812 576C320.684 576 320.556 576 320.428 576C320.3 576 320.172 576 320.043 576C319.915 576 319.787 576 319.658 576C319.53 576 319.402 576 319.273 576C319.145 576 319.016 576 318.887 576C318.759 576 318.63 576 318.501 576C318.372 576 318.244 576 318.115 576C317.986 576 317.857 576 317.728 576C317.599 576 317.47 576 317.341 576C317.212 576 317.083 576 316.953 576C316.824 576 316.695 576 316.566 576C316.436 576 316.307 576 316.178 576C316.048 576 315.919 576 315.789 576C315.66 576 315.53 576 315.4 576C315.271 576 315.141 576 315.011 576C314.881 576 314.752 576 314.622 576C314.492 576 314.362 576 314.232 576C314.102 576 313.972 576 313.842 576C313.712 576 313.582 576 313.451 576C313.321 576 313.191 576 313.061 576C312.93 576 312.8 576 312.67 576C312.539 576 312.409 576 312.278 576C312.148 576 312.017 576 311.886 576C311.756 576 311.625 576 311.494 576C311.364 576 311.233 576 311.102 576C310.971 576 310.84 576 310.709 576C310.579 576 310.448 576 310.317 576C310.186 576 310.054 576 309.923 576C309.792 576 309.661 576 309.53 576C309.398 576 309.267 576 309.136 576C309.005 576 308.873 576 308.742 576C308.61 576 308.479 576 308.347 576C308.216 576 308.084 576 307.952 576C307.821 576 307.689 576 307.557 576C307.426 576 307.294 576 307.162 576C307.03 576 306.898 576 306.766 576C306.635 576 306.503 576 306.37 576C306.238 576 306.106 576 305.974 576C305.842 576 305.71 576 305.578 576C305.446 576 305.313 576 305.181 576C305.049 576 304.916 576 304.784 576C304.652 576 304.519 576 304.387 576C304.254 576 304.122 576 303.989 576C303.856 576 303.724 576 303.591 576C303.458 576 303.326 576 303.193 576C303.06 576 302.927 576 302.795 576C302.662 576 302.529 576 302.396 576C302.263 576 302.13 576 301.997 576C301.864 576 301.731 576 301.598 576C301.464 576 301.331 576 301.198 576C301.065 576 300.932 576 300.798 576C300.665 576 300.532 576 300.398 576C300.265 576 300.132 576 299.998 576C299.865 576 299.731 576 299.597 576C299.464 576 299.33 576 299.197 576C299.063 576 298.929 576 298.796 576C298.662 576 298.528 576 298.394 576C298.261 576 298.127 576 297.993 576C297.859 576 297.725 576 297.591 576C297.457 576 297.323 576 297.189 576C297.055 576 296.921 576 296.787 576C296.653 576 296.518 576 296.384 576C296.25 576 296.116 576 295.981 576C295.847 576 295.713 576 295.578 576C295.444 576 295.31 576 295.175 576C295.041 576 294.906 576 294.772 576C294.637 576 294.503 576 294.368 576C294.234 576 294.099 576 293.964 576C293.83 576 293.695 576 293.56 576C293.425 576 293.291 576 293.156 576C293.021 576 292.886 576 292.751 576C292.616 576 292.481 576 292.346 576C292.211 576 292.076 576 291.941 576C291.806 576 291.671 576 291.536 576C291.401 576 291.266 576 291.131 576C290.995 576 290.86 576 290.725 576C290.59 576 290.454 576 290.319 576C290.184 576 290.048 576 289.913 576C289.778 576 289.642 576 289.507 576C289.371 576 289.236 576 289.1 576C288.965 576 288.829 576 288.693 576C288.558 576 288.422 576 288.287 576C288.151 576 288.015 576 287.879 576C287.744 576 287.608 576 287.472 576C287.336 576 287.201 576 287.065 576C286.929 576 286.793 576 286.657 576C286.521 576 286.385 576 286.249 576C286.113 576 285.977 576 285.841 576C285.705 576 285.569 576 285.433 576C285.297 576 285.16 576 285.024 576C284.888 576 284.752 576 284.616 576C284.479 576 284.343 576 284.207 576C284.071 576 283.934 576 283.798 576C283.661 576 283.525 576 283.389 576C283.252 576 283.116 576 282.979 576C282.843 576 282.706 576 282.57 576C282.433 576 282.297 576 282.16 576C282.024 576 281.887 576 281.75 576C281.614 576 281.477 576 281.34 576C281.204 576 281.067 576 280.93 576C280.793 576 280.656 576 280.52 576C280.383 576 280.246 576 280.109 576C279.972 576 279.835 576 279.698 576C279.562 576 279.425 576 279.288 576C279.151 576 279.014 576 278.877 576C278.74 576 278.603 576 278.465 576C278.328 576 278.191 576 278.054 576C277.917 576 277.78 576 277.643 576C277.506 576 277.368 576 277.231 576C277.094 576 276.957 576 276.819 576C276.682 576 276.545 576 276.407 576C276.27 576 276.133 576 275.995 576C275.858 576 275.721 576 275.583 576C275.446 576 275.308 576 275.171 576C275.033 576 274.896 576 274.758 576C274.621 576 274.483 576 274.346 576C274.208 576 274.071 576 273.933 576C273.795 576 273.658 576 273.52 576C273.383 576 273.245 576 273.107 576C272.97 576 272.832 576 272.694 576C272.556 576 272.419 576 272.281 576C272.143 576 272.005 576 271.867 576C271.73 576 271.592 576 271.454 576C271.316 576 271.178 576 271.04 576C270.903 576 270.765 576 270.627 576C270.489 576 270.351 576 270.213 576C270.075 576 269.937 576 269.799 576C269.661 576 269.523 576 269.385 576C269.247 576 269.109 576 268.971 576C268.833 576 268.694 576 268.556 576C268.418 576 268.28 576 268.142 576C268.004 576 267.866 576 267.727 576C267.589 576 267.451 576 267.313 576C267.175 576 267.036 576 266.898 576C266.76 576 266.622 576 266.483 576C266.345 576 266.207 576 266.068 576C265.93 576 265.792 576 265.653 576C265.515 576 265.377 576 265.238 576C265.1 576 264.962 576 264.823 576C264.685 576 264.546 576 264.408 576C264.27 576 264.131 576 263.993 576C263.854 576 263.716 576 263.577 576C263.439 576 263.3 576 263.162 576C263.023 576 262.885 576 262.746 576C262.608 576 262.469 576 262.33 576C262.192 576 262.053 576 261.915 576C261.776 576 261.637 576 261.499 576C261.36 576 261.222 576 261.083 576C260.944 576 260.806 576 260.667 576C260.528 576 260.39 576 260.251 576C260.112 576 259.973 576 259.835 576C259.696 576 259.557 576 259.419 576C259.28 576 259.141 576 259.002 576C258.864 576 258.725 576 258.586 576C258.447 576 258.309 576 258.17 576C258.031 576 257.892 576 257.753 576C257.614 576 257.476 576 257.337 576C257.198 576 257.059 576 256.92 576C256.781 576 256.643 576 256.504 576C256.365 576 256.226 576 256.087 576C255.948 576 255.809 576 255.67 576C255.532 576 255.393 576 255.254 576C255.115 576 254.976 576 254.837 576C254.698 576 254.559 576 254.42 576C254.281 576 254.142 576 254.003 576C253.864 576 253.725 576 253.586 576C253.447 576 253.308 576 253.169 576C253.031 576 252.892 576 252.753 576C252.614 576 252.475 576 252.336 576C252.197 576 252.058 576 251.919 576C251.779 576 251.64 576 251.501 576C251.362 576 251.223 576 251.084 576C250.945 576 250.806 576 250.667 576C250.528 576 250.389 576 250.25 576C250.111 576 249.972 576 249.833 576C249.694 576 249.555 576 249.416 576C249.277 576 249.138 576 248.999 576C248.86 576 248.721 576 248.581 576C248.442 576 248.303 576 248.164 576C248.025 576 247.886 576 247.747 576C247.608 576 247.469 576 247.33 576C247.191 576 247.052 576 246.913 576C246.774 576 246.634 576 246.495 576C246.356 576 246.217 576 246.078 576C245.939 576 245.8 576 245.661 576C245.522 576 245.383 576 245.244 576C245.105 576 244.965 576 244.826 576C244.687 576 244.548 576 244.409 576C244.27 576 244.131 576 243.992 576C243.853 576 243.714 576 243.575 576C243.436 576 243.297 576 243.158 576C243.018 576 242.879 576 242.74 576C242.601 576 242.462 576 242.323 576C242.184 576 242.045 576 241.906 576C241.767 576 241.628 576 241.489 576C241.35 576 241.211 576 241.072 576C240.933 576 240.794 576 240.655 576C240.516 576 240.377 576 240.238 576C240.098 576 239.959 576 239.82 576C239.681 576 239.542 576 239.403 576C239.264 576 239.125 576 238.986 576C238.847 576 238.708 576 238.569 576C238.43 576 238.291 576 238.153 576C238.014 576 237.875 576 237.736 576C237.597 576 237.458 576 237.319 576C237.18 576 237.041 576 236.902 576C236.763 576 236.624 576 236.485 576C236.346 576 236.207 576 236.068 576C235.93 576 235.791 576 235.652 576C235.513 576 235.374 576 235.235 576C235.096 576 234.957 576 234.818 576C234.68 576 234.541 576 234.402 576C234.263 576 234.124 576 233.985 576C233.847 576 233.708 576 233.569 576C233.43 576 233.291 576 233.153 576C233.014 576 232.875 576 232.736 576C232.598 576 232.459 576 232.32 576C232.181 576 232.043 576 231.904 576C231.765 576 231.626 576 231.488 576C231.349 576 231.21 576 231.072 576C230.933 576 230.794 576 230.656 576C230.517 576 230.378 576 230.24 576C230.101 576 229.962 576 229.824 576C229.685 576 229.547 576 229.408 576C229.27 576 229.131 576 228.992 576C228.854 576 228.715 576 228.577 576C228.438 576 228.3 576 228.161 576C228.023 576 227.884 576 227.746 576C227.607 576 227.469 576 227.33 576C227.192 576 227.053 576 226.915 576C226.777 576 226.638 576 226.5 576C226.361 576 226.223 576 226.085 576C225.946 576 225.808 576 225.67 576C225.531 576 225.393 576 225.255 576C225.117 576 224.978 576 224.84 576C224.702 576 224.563 576 224.425 576C224.287 576 224.149 576 224.011 576C223.872 576 223.734 576 223.596 576C223.458 576 223.32 576 223.182 576C223.044 576 222.905 576 222.767 576C222.629 576 222.491 576 222.353 576C222.215 576 222.077 576 221.939 576C221.801 576 221.663 576 221.525 576C221.387 576 221.249 576 221.111 576C220.973 576 220.835 576 220.697 576C220.559 576 220.422 576 220.284 576C220.146 576 220.008 576 219.87 576C219.732 576 219.595 576 219.457 576C219.319 576 219.181 576 219.043 576C218.906 576 218.768 576 218.63 576C218.493 576 218.355 576 218.217 576C218.08 576 217.942 576 217.804 576C217.667 576 217.529 576 217.392 576C217.254 576 217.116 576 216.979 576C216.841 576 216.704 576 216.566 576C216.429 576 216.291 576 216.154 576C216.017 576 215.879 576 215.742 576C215.604 576 215.467 576 215.33 576C215.192 576 215.055 576 214.918 576C214.78 576 214.643 576 214.506 576C214.369 576 214.231 576 214.094 576C213.957 576 213.82 576 213.683 576C213.546 576 213.409 576 213.271 576C213.134 576 212.997 576 212.86 576C212.723 576 212.586 576 212.449 576C212.312 576 212.175 576 212.038 576C211.901 576 211.764 576 211.627 576C211.491 576 211.354 576 211.217 576C211.08 576 210.943 576 210.806 576C210.67 576 210.533 576 210.396 576C210.259 576 210.123 576 209.986 576C209.849 576 209.713 576 209.576 576C209.44 576 209.303 576 209.166 576C209.03 576 208.893 576 208.757 576C208.62 576 208.484 576 208.347 576C208.211 576 208.075 576 207.938 576C207.802 576 207.665 576 207.529 576C207.393 576 207.257 576 207.12 576C206.984 576 206.848 576 206.712 576C206.575 576 206.439 576 206.303 576C206.167 576 206.031 576 205.895 576C205.759 576 205.623 576 205.487 576C205.351 576 205.215 576 205.079 576C204.943 576 204.807 576 204.671 576C204.535 576 204.399 576 204.263 576C204.127 576 203.992 576 203.856 576C203.72 576 203.584 576 203.449 576C203.313 576 203.177 576 203.042 576C202.906 576 202.771 576 202.635 576C202.499 576 202.364 576 202.228 576C202.093 576 201.957 576 201.822 576C201.687 576 201.551 576 201.416 576C201.281 576 201.145 576 201.01 576C200.875 576 200.739 576 200.604 576C200.469 576 200.334 576 200.199 576C200.063 576 199.928 576 199.793 576C199.658 576 199.523 576 199.388 576C199.253 576 199.118 576 198.983 576C198.848 576 198.714 576 198.579 576C198.444 576 198.309 576 198.174 576C198.039 576 197.905 576 197.77 576C197.635 576 197.501 576 197.366 576C197.231 576 197.097 576 196.962 576C196.828 576 196.693 576 196.559 576C196.424 576 196.29 576 196.155 576C196.021 576 195.887 576 195.752 576C195.618 576 195.484 576 195.349 576C195.215 576 195.081 576 194.947 576C194.813 576 194.679 576 194.545 576C194.41 576 194.276 576 194.142 576C194.008 576 193.874 576 193.741 576C193.607 576 193.473 576 193.339 576C193.205 576 193.071 576 192.938 576C192.804 576 192.67 576 192.536 576C192.403 576 192.269 576 192.136 576C192.002 576 191.868 576 191.735 576C191.601 576 191.468 576 191.335 576C191.201 576 191.068 576 190.934 576C190.801 576 190.668 576 190.535 576C190.401 576 190.268 576 190.135 576C190.002 576 189.869 576 189.736 576C189.603 576 189.47 576 189.337 576C189.204 576 189.071 576 188.938 576C188.805 576 188.672 576 188.539 576C188.406 576 188.274 576 188.141 576C188.008 576 187.876 576 187.743 576C187.61 576 187.478 576 187.345 576C187.213 576 187.08 576 186.948 576C186.815 576 186.683 576 186.551 576C186.418 576 186.286 576 186.154 576C186.021 576 185.889 576 185.757 576C185.625 576 185.493 576 185.361 576C185.229 576 185.097 576 184.965 576C184.833 576 184.701 576 184.569 576C184.437 576 184.305 576 184.174 576C184.042 576 183.91 576 183.778 576C183.647 576 183.515 576 183.384 576C183.252 576 183.12 576 182.989 576C182.858 576 182.726 576 182.595 576C182.463 576 182.332 576 182.201 576C182.069 576 181.938 576 181.807 576C181.676 576 181.545 576 181.414 576C181.283 576 181.152 576 181.021 576C180.89 576 180.759 576 180.628 576C180.497 576 180.366 576 180.235 576C180.105 576 179.974 576 179.843 576C179.713 576 179.582 576 179.451 576C179.321 576 179.19 576 179.06 576C178.93 576 178.799 576 178.669 576C178.538 576 178.408 576 178.278 576C178.148 576 178.018 576 177.887 576C177.757 576 177.627 576 177.497 576C177.367 576 177.237 576 177.107 576C176.977 576 176.847 576 176.718 576C176.588 576 176.458 576 176.328 576C176.199 576 176.069 576 175.94 576C175.81 576 175.68 576 175.551 576C175.421 576 175.292 576 175.163 576C175.033 576 174.904 576 174.775 576C174.646 576 174.516 576 174.387 576C174.258 576 174.129 576 174 576C173.871 576 173.742 576 173.613 576C173.484 576 173.355 576 173.227 576C173.098 576 172.969 576 172.84 576C172.712 576 172.583 576 172.454 576C172.326 576 172.197 576 172.069 576C171.941 576 171.812 576 171.684 576C171.556 576 171.427 576 171.299 576C171.171 576 171.043 576 170.915 576C170.787 576 170.658 576 170.531 576C170.403 576 170.275 576 170.147 576C170.019 576 169.891 576 169.763 576C169.636 576 169.508 576 169.38 576C169.253 576 169.125 576 168.998 576C168.87 576 168.743 576 168.616 576C168.488 576 168.361 576 168.234 576C168.106 576 167.979 576 167.852 576C167.725 576 167.598 576 167.471 576C167.344 576 167.217 576 167.09 576C166.963 576 166.837 576 166.71 576C166.583 576 166.456 576 166.33 576C166.203 576 166.077 576 165.95 576C165.824 576 165.697 576 165.571 576C165.445 576 165.318 576 165.192 576C165.066 576 164.94 576 164.814 576C164.687 576 164.561 576 164.435 576C164.31 576 164.184 576 164.058 576C163.932 576 163.806 576 163.68 576C163.555 576 163.429 576 163.304 576C163.178 576 163.052 576 162.927 576C162.802 576 162.676 576 162.551 576C162.426 576 162.3 576 162.175 576C162.05 576 161.925 576 161.8 576C161.675 576 161.55 576 161.425 576C161.3 576 161.175 576 161.05 576C160.926 576 160.801 576 160.676 576C160.552 576 160.427 576 160.303 576C160.178 576 160.054 576 159.929 576C159.805 576 159.681 576 159.557 576V592C159.681 592 159.805 592 159.929 592C160.054 592 160.178 592 160.303 592C160.427 592 160.552 592 160.676 592C160.801 592 160.926 592 161.05 592C161.175 592 161.3 592 161.425 592C161.55 592 161.675 592 161.8 592C161.925 592 162.05 592 162.175 592C162.3 592 162.426 592 162.551 592C162.676 592 162.802 592 162.927 592C163.052 592 163.178 592 163.304 592C163.429 592 163.555 592 163.68 592C163.806 592 163.932 592 164.058 592C164.184 592 164.31 592 164.435 592C164.561 592 164.687 592 164.814 592C164.94 592 165.066 592 165.192 592C165.318 592 165.445 592 165.571 592C165.697 592 165.824 592 165.95 592C166.077 592 166.203 592 166.33 592C166.456 592 166.583 592 166.71 592C166.837 592 166.963 592 167.09 592C167.217 592 167.344 592 167.471 592C167.598 592 167.725 592 167.852 592C167.979 592 168.106 592 168.234 592C168.361 592 168.488 592 168.616 592C168.743 592 168.87 592 168.998 592C169.125 592 169.253 592 169.38 592C169.508 592 169.636 592 169.763 592C169.891 592 170.019 592 170.147 592C170.275 592 170.403 592 170.531 592C170.658 592 170.787 592 170.915 592C171.043 592 171.171 592 171.299 592C171.427 592 171.556 592 171.684 592C171.812 592 171.941 592 172.069 592C172.197 592 172.326 592 172.454 592C172.583 592 172.712 592 172.84 592C172.969 592 173.098 592 173.227 592C173.355 592 173.484 592 173.613 592C173.742 592 173.871 592 174 592C174.129 592 174.258 592 174.387 592C174.516 592 174.646 592 174.775 592C174.904 592 175.033 592 175.163 592C175.292 592 175.421 592 175.551 592C175.68 592 175.81 592 175.94 592C176.069 592 176.199 592 176.328 592C176.458 592 176.588 592 176.718 592C176.847 592 176.977 592 177.107 592C177.237 592 177.367 592 177.497 592C177.627 592 177.757 592 177.887 592C178.018 592 178.148 592 178.278 592C178.408 592 178.538 592 178.669 592C178.799 592 178.93 592 179.06 592C179.19 592 179.321 592 179.451 592C179.582 592 179.713 592 179.843 592C179.974 592 180.105 592 180.235 592C180.366 592 180.497 592 180.628 592C180.759 592 180.89 592 181.021 592C181.152 592 181.283 592 181.414 592C181.545 592 181.676 592 181.807 592C181.938 592 182.069 592 182.201 592C182.332 592 182.463 592 182.595 592C182.726 592 182.858 592 182.989 592C183.12 592 183.252 592 183.384 592C183.515 592 183.647 592 183.778 592C183.91 592 184.042 592 184.174 592C184.305 592 184.437 592 184.569 592C184.701 592 184.833 592 184.965 592C185.097 592 185.229 592 185.361 592C185.493 592 185.625 592 185.757 592C185.889 592 186.021 592 186.154 592C186.286 592 186.418 592 186.551 592C186.683 592 186.815 592 186.948 592C187.08 592 187.213 592 187.345 592C187.478 592 187.61 592 187.743 592C187.876 592 188.008 592 188.141 592C188.274 592 188.406 592 188.539 592C188.672 592 188.805 592 188.938 592C189.071 592 189.204 592 189.337 592C189.47 592 189.603 592 189.736 592C189.869 592 190.002 592 190.135 592C190.268 592 190.401 592 190.535 592C190.668 592 190.801 592 190.934 592C191.068 592 191.201 592 191.335 592C191.468 592 191.601 592 191.735 592C191.868 592 192.002 592 192.136 592C192.849 592 192.224 592 192.938 592C193.071 592 193.205 592 193.339 592C193.473 592 193.607 592 193.741 592C193.874 592 194.008 592 194.142 592C194.276 592 194.41 592 194.545 592C194.679 592 194.813 592 194.947 592C195.081 592 195.215 592 195.349 592C195.484 592 195.618 592 195.752 592C195.887 592 196.021 592 196.155 592C196.29 592 196.424 592 196.559 592C196.693 592 196.828 592 196.962 592C197.097 592 197.231 592 197.366 592C197.501 592 197.635 592 197.77 592C197.905 592 198.039 592 198.174 592C198.309 592 198.444 592 198.579 592C198.714 592 198.848 592 198.983 592C199.118 592 199.253 592 199.388 592C199.523 592 199.658 592 199.793 592C199.928 592 200.063 592 200.199 592C200.334 592 200.469 592 200.604 592C200.739 592 200.875 592 201.01 592C201.145 592 201.281 592 201.416 592C201.551 592 201.687 592 201.822 592C201.957 592 202.093 592 202.228 592C202.364 592 202.499 592 202.635 592C202.771 592 202.906 592 203.042 592C203.177 592 203.313 592 203.449 592C203.584 592 203.72 592 203.856 592C203.992 592 204.127 592 204.263 592C204.399 592 204.535 592 204.671 592C204.807 592 204.943 592 205.079 592C205.215 592 205.351 592 205.487 592C205.623 592 205.759 592 205.895 592C206.031 592 206.167 592 206.303 592C206.439 592 206.575 592 206.712 592C206.848 592 206.984 592 207.12 592C207.257 592 207.393 592 207.529 592C207.665 592 207.802 592 207.938 592C208.075 592 208.211 592 208.347 592C208.484 592 208.62 592 208.757 592C208.893 592 209.03 592 209.166 592C209.303 592 209.44 592 209.576 592C209.713 592 209.849 592 209.986 592C210.123 592 210.259 592 210.396 592C210.533 592 210.67 592 210.806 592C210.943 592 211.08 592 211.217 592C211.354 592 211.491 592 211.627 592C211.764 592 211.901 592 212.038 592C212.175 592 212.312 592 212.449 592C212.586 592 212.723 592 212.86 592C212.997 592 213.134 592 213.271 592C213.409 592 213.546 592 213.683 592C213.82 592 213.957 592 214.094 592C214.231 592 214.369 592 214.506 592C214.643 592 214.78 592 214.918 592C215.055 592 215.192 592 215.33 592C215.467 592 215.604 592 215.742 592C215.879 592 216.017 592 216.154 592C216.291 592 216.429 592 216.566 592C216.704 592 216.841 592 216.979 592C217.116 592 217.254 592 217.392 592C217.529 592 217.667 592 217.804 592C217.942 592 218.08 592 218.217 592C218.355 592 218.493 592 218.63 592C218.768 592 218.906 592 219.043 592C219.181 592 219.319 592 219.457 592C219.595 592 219.732 592 219.87 592C220.008 592 220.146 592 220.284 592C220.422 592 220.559 592 220.697 592C220.835 592 220.973 592 221.111 592C221.249 592 221.387 592 221.525 592C221.663 592 221.801 592 221.939 592C222.077 592 222.215 592 222.353 592C222.491 592 222.629 592 222.767 592C222.905 592 223.044 592 223.182 592C223.32 592 223.458 592 223.596 592C223.734 592 223.872 592 224.011 592C224.149 592 224.287 592 224.425 592C224.563 592 224.702 592 224.84 592C224.978 592 225.117 592 225.255 592C225.393 592 225.531 592 225.67 592C225.808 592 225.946 592 226.085 592C226.223 592 226.361 592 226.5 592C226.638 592 226.777 592 226.915 592C227.053 592 227.192 592 227.33 592C227.469 592 227.607 592 227.746 592C227.884 592 228.023 592 228.161 592C228.3 592 228.438 592 228.577 592C228.715 592 228.854 592 228.992 592C229.131 592 229.27 592 229.408 592C229.547 592 229.685 592 229.824 592C229.962 592 230.101 592 230.24 592C230.378 592 230.517 592 230.656 592C230.794 592 230.933 592 231.072 592C231.21 592 231.349 592 231.488 592C231.626 592 231.765 592 231.904 592C232.043 592 232.181 592 232.32 592C232.459 592 232.598 592 232.736 592C232.875 592 233.014 592 233.153 592C233.291 592 233.43 592 233.569 592C233.708 592 233.847 592 233.985 592C234.124 592 234.263 592 234.402 592C234.541 592 234.68 592 234.818 592C234.957 592 235.096 592 235.235 592C235.374 592 235.513 592 235.652 592C235.791 592 235.93 592 236.068 592C236.207 592 236.346 592 236.485 592C236.624 592 236.763 592 236.902 592C237.041 592 237.18 592 237.319 592C237.458 592 237.597 592 237.736 592C237.875 592 238.014 592 238.153 592C238.291 592 238.43 592 238.569 592C238.708 592 238.847 592 238.986 592C239.125 592 239.264 592 239.403 592C239.542 592 239.681 592 239.82 592C239.959 592 240.098 592 240.238 592C240.377 592 240.516 592 240.655 592C240.794 592 240.933 592 241.072 592C241.211 592 241.35 592 241.489 592C241.628 592 241.767 592 241.906 592C242.045 592 242.184 592 242.323 592C242.462 592 242.601 592 242.74 592C242.879 592 243.018 592 243.158 592C243.297 592 243.436 592 243.575 592C243.714 592 243.853 592 243.992 592C244.131 592 244.27 592 244.409 592C244.548 592 244.687 592 244.826 592C244.965 592 245.105 592 245.244 592C245.383 592 245.522 592 245.661 592C245.8 592 245.939 592 246.078 592C246.217 592 246.356 592 246.495 592C246.634 592 246.774 592 246.913 592C247.052 592 247.191 592 247.33 592C247.469 592 247.608 592 247.747 592C247.886 592 248.025 592 248.164 592C248.303 592 248.442 592 248.581 592C248.721 592 248.86 592 248.999 592C249.138 592 249.277 592 249.416 592C249.555 592 249.694 592 249.833 592C249.972 592 250.111 592 250.25 592C250.389 592 250.528 592 250.667 592C250.806 592 250.945 592 251.084 592C251.223 592 251.362 592 251.501 592C251.64 592 251.779 592 251.919 592C252.058 592 252.197 592 252.336 592C252.475 592 252.614 592 252.753 592C252.892 592 253.031 592 253.169 592C253.308 592 253.447 592 253.586 592C253.725 592 253.864 592 254.003 592C254.142 592 254.281 592 254.42 592C254.559 592 254.698 592 254.837 592C254.976 592 255.115 592 255.254 592C255.393 592 255.532 592 255.67 592C255.809 592 255.948 592 256.087 592C256.226 592 256.365 592 256.504 592C256.643 592 256.781 592 256.92 592C257.059 592 257.198 592 257.337 592C257.476 592 257.614 592 257.753 592C257.892 592 258.031 592 258.17 592C258.309 592 258.447 592 258.586 592C258.725 592 258.864 592 259.002 592C259.141 592 259.28 592 259.419 592C259.557 592 259.696 592 259.835 592C259.973 592 260.112 592 260.251 592C260.39 592 260.528 592 260.667 592C260.806 592 260.944 592 261.083 592C261.222 592 261.36 592 261.499 592C261.637 592 261.776 592 261.915 592C262.053 592 262.192 592 262.33 592C262.469 592 262.608 592 262.746 592C262.885 592 263.023 592 263.162 592C263.3 592 263.439 592 263.577 592C263.716 592 263.854 592 263.993 592C264.131 592 264.27 592 264.408 592C264.546 592 264.685 592 264.823 592C264.962 592 265.1 592 265.238 592C265.377 592 265.515 592 265.653 592C265.792 592 265.93 592 266.068 592C266.207 592 266.345 592 266.483 592C266.622 592 266.76 592 266.898 592C267.036 592 267.175 592 267.313 592C267.451 592 267.589 592 267.727 592C267.866 592 268.004 592 268.142 592C268.28 592 268.418 592 268.556 592C268.694 592 268.833 592 268.971 592C269.109 592 269.247 592 269.385 592C269.523 592 269.661 592 269.799 592C269.937 592 270.075 592 270.213 592C270.351 592 270.489 592 270.627 592C270.765 592 270.903 592 271.04 592C271.178 592 271.316 592 271.454 592C271.592 592 271.73 592 271.867 592C272.005 592 272.143 592 272.281 592C272.419 592 272.556 592 272.694 592C272.832 592 272.97 592 273.107 592C273.245 592 273.383 592 273.52 592C273.658 592 273.795 592 273.933 592C274.071 592 274.208 592 274.346 592C274.483 592 274.621 592 274.758 592C274.896 592 275.033 592 275.171 592C275.308 592 275.446 592 275.583 592C275.721 592 275.858 592 275.995 592C276.133 592 276.27 592 276.407 592C276.545 592 276.682 592 276.819 592C276.957 592 277.094 592 277.231 592C277.368 592 277.506 592 277.643 592C277.78 592 277.917 592 278.054 592C278.191 592 278.328 592 278.465 592C278.603 592 278.74 592 278.877 592C279.014 592 279.151 592 279.288 592C279.425 592 279.562 592 279.698 592C279.835 592 279.972 592 280.109 592C280.246 592 280.383 592 280.52 592C280.656 592 280.793 592 280.93 592C281.067 592 281.204 592 281.34 592C281.477 592 281.614 592 281.75 592C281.887 592 282.024 592 282.16 592C282.297 592 282.433 592 282.57 592C282.706 592 282.843 592 282.979 592C283.116 592 283.252 592 283.389 592C283.525 592 283.661 592 283.798 592C283.934 592 284.071 592 284.207 592C284.343 592 284.479 592 284.616 592C284.752 592 284.888 592 285.024 592C285.16 592 285.297 592 285.433 592C285.569 592 285.705 592 285.841 592C285.977 592 286.113 592 286.249 592C286.385 592 286.521 592 286.657 592C286.793 592 286.929 592 287.065 592C287.201 592 287.336 592 287.472 592C287.608 592 287.744 592 287.879 592C288.015 592 288.151 592 288.287 592C288.422 592 288.558 592 288.693 592C288.829 592 288.965 592 289.1 592C289.236 592 289.371 592 289.507 592C289.642 592 289.778 592 289.913 592C290.048 592 290.184 592 290.319 592C290.454 592 290.59 592 290.725 592C290.86 592 290.995 592 291.131 592C291.266 592 291.401 592 291.536 592C291.671 592 291.806 592 291.941 592C292.076 592 292.211 592 292.346 592C292.481 592 292.616 592 292.751 592C292.886 592 293.021 592 293.156 592C293.291 592 293.425 592 293.56 592C293.695 592 293.83 592 293.964 592C294.099 592 294.234 592 294.368 592C294.503 592 294.637 592 294.772 592C294.906 592 295.041 592 295.175 592C295.31 592 295.444 592 295.578 592C295.713 592 295.847 592 295.981 592C296.116 592 296.25 592 296.384 592C296.518 592 296.653 592 296.787 592C296.921 592 297.055 592 297.189 592C297.323 592 297.457 592 297.591 592C297.725 592 297.859 592 297.993 592C298.127 592 298.261 592 298.394 592C298.528 592 298.662 592 298.796 592C298.929 592 299.063 592 299.197 592C299.33 592 299.464 592 299.597 592C299.731 592 299.865 592 299.998 592C300.132 592 300.265 592 300.398 592C300.532 592 300.665 592 300.798 592C300.932 592 301.065 592 301.198 592C301.331 592 301.464 592 301.598 592C301.731 592 301.864 592 301.997 592C302.13 592 302.263 592 302.396 592C302.529 592 302.662 592 302.795 592C302.927 592 303.06 592 303.193 592C303.326 592 303.458 592 303.591 592C303.724 592 303.856 592 303.989 592C304.122 592 304.254 592 304.387 592C304.519 592 304.652 592 304.784 592C304.916 592 305.049 592 305.181 592C305.313 592 305.446 592 305.578 592C305.71 592 305.842 592 305.974 592C306.106 592 306.238 592 306.37 592C306.503 592 306.635 592 306.766 592C306.898 592 307.03 592 307.162 592C307.294 592 307.426 592 307.557 592C307.689 592 307.821 592 307.952 592C308.084 592 308.216 592 308.347 592C308.479 592 308.61 592 308.742 592C308.873 592 309.005 592 309.136 592C309.267 592 309.398 592 309.53 592C309.661 592 309.792 592 309.923 592C310.054 592 310.186 592 310.317 592C310.448 592 310.579 592 310.709 592C310.84 592 310.971 592 311.102 592C311.233 592 311.364 592 311.494 592C311.625 592 311.756 592 311.886 592C312.017 592 312.148 592 312.278 592C312.409 592 312.539 592 312.67 592C312.8 592 312.93 592 313.061 592C313.191 592 313.321 592 313.451 592C313.582 592 313.712 592 313.842 592C313.972 592 314.102 592 314.232 592C314.362 592 314.492 592 314.622 592C314.752 592 314.881 592 315.011 592C315.141 592 315.271 592 315.4 592C315.53 592 315.66 592 315.789 592C315.919 592 316.048 592 316.178 592C316.307 592 316.436 592 316.566 592C316.695 592 316.824 592 316.953 592C317.083 592 317.212 592 317.341 592C317.47 592 317.599 592 317.728 592C317.857 592 317.986 592 318.115 592C318.244 592 318.372 592 318.501 592C318.63 592 318.759 592 318.887 592C319.016 592 319.145 592 319.273 592C319.402 592 319.53 592 319.658 592C319.787 592 319.915 592 320.043 592C320.172 592 320.3 592 320.428 592C320.556 592 320.684 592 320.812 592C320.94 592 321.068 592 321.196 592C321.324 592 321.452 592 321.58 592C321.708 592 321.835 592 321.963 592C322.091 592 322.218 592 322.346 592C322.474 592 322.601 592 322.729 592C322.856 592 322.983 592 323.111 592C323.238 592 323.365 592 323.492 592C323.62 592 323.747 592 323.874 592C324.001 592 324.128 592 324.255 592C324.382 592 324.509 592 324.635 592C324.762 592 324.889 592 325.016 592C325.142 592 325.269 592 325.396 592C325.522 592 325.649 592 325.775 592C325.902 592 326.028 592 326.154 592C326.28 592 326.407 592 326.533 592C326.659 592 326.785 592 326.911 592C327.037 592 327.163 592 327.289 592C327.415 592 327.541 592 327.667 592C327.793 592 327.918 592 328.044 592C328.17 592 328.295 592 328.421 592C328.546 592 328.672 592 328.797 592C328.922 592 329.048 592 329.173 592C329.298 592 329.423 592 329.549 592C329.674 592 329.799 592 329.924 592C330.049 592 330.174 592 330.299 592C330.423 592 330.548 592 330.673 592C330.798 592 330.922 592 331.047 592C331.171 592 331.296 592 331.42 592C331.545 592 331.669 592 331.793 592C331.918 592 332.042 592 332.166 592C332.29 592 332.414 592 332.538 592C332.663 592 332.786 592 332.91 592C333.034 592 333.158 592 333.282 592C333.406 592 333.529 592 333.653 592C333.776 592 333.9 592 334.023 592C334.147 592 334.27 592 334.394 592C334.517 592 334.64 592 334.763 592C334.887 592 335.01 592 335.133 592C335.256 592 335.379 592 335.502 592C335.624 592 335.747 592 335.87 592C335.993 592 336.115 592 336.238 592C336.361 592 336.483 592 336.606 592C336.728 592 336.85 592 336.973 592C337.095 592 337.217 592 337.339 592C337.462 592 337.584 592 337.706 592C337.828 592 337.95 592 338.071 592C338.193 592 338.315 592 338.437 592C338.559 592 338.68 592 338.802 592C338.923 592 339.045 592 339.166 592C339.288 592 339.409 592 339.53 592C339.651 592 339.773 592 339.894 592C340.015 592 340.136 592 340.257 592C340.378 592 340.499 592 340.619 592C340.74 592 340.861 592 340.982 592C341.102 592 341.223 592 341.343 592C341.464 592 341.584 592 341.705 592C341.825 592 341.945 592 342.065 592C342.186 592 342.306 592 342.426 592C342.546 592 342.666 592 342.785 592C342.905 592 343.025 592 343.145 592C343.265 592 343.384 592 343.504 592C343.623 592 343.743 592 343.862 592C343.982 592 344.101 592 344.22 592C344.339 592 344.458 592 344.577 592C344.697 592 344.816 592 344.934 592C345.053 592 345.172 592 345.291 592C345.41 592 345.528 592 345.647 592C345.766 592 345.884 592 346.002 592C346.121 592 346.239 592 346.357 592C346.987 592 346.437 592 347.066 592C347.184 592 347.302 592 347.419 592C347.537 592 347.655 592 347.773 592C347.89 592 348.008 592 348.125 592C348.242 592 348.36 592 348.477 592C348.594 592 348.712 592 348.829 592C348.946 592 349.063 592 349.18 592C349.297 592 349.413 592 349.53 592C349.647 592 349.764 592 349.88 592C349.997 592 350.113 592 350.23 592C350.346 592 350.462 592 350.579 592C350.695 592 350.811 592 350.927 592C351.043 592 351.159 592 351.275 592C351.391 592 351.507 592 351.622 592C351.738 592 351.854 592 351.969 592C352.085 592 352.2 592 352.316 592C352.431 592 352.546 592 352.662 592C352.777 592 352.892 592 353.007 592C353.122 592 353.237 592 353.352 592C353.466 592 353.581 592 353.696 592C353.811 592 353.925 592 354.04 592C354.154 592 354.268 592 354.383 592C354.497 592 354.611 592 354.725 592C354.84 592 354.954 592 355.068 592C355.182 592 355.295 592 355.409 592C355.523 592 355.637 592 355.75 592C355.864 592 355.977 592 356.091 592C356.204 592 356.317 592 356.431 592C356.544 592 356.657 592 356.77 592C356.883 592 356.996 592 357.109 592C357.222 592 357.334 592 357.447 592C357.56 592 357.672 592 357.785 592C357.897 592 358.01 592 358.122 592C358.234 592 358.347 592 358.459 592C358.571 592 358.683 592 358.795 592C358.907 592 359.018 592 359.13 592C359.242 592 359.354 592 359.465 592C359.577 592 359.688 592 359.799 592C359.911 592 360.022 592 360.133 592C360.244 592 360.355 592 360.466 592C360.577 592 360.688 592 360.799 592C360.91 592 361.021 592 361.131 592C361.242 592 361.352 592 361.463 592V576ZM115.236 553.451C100.837 524.063 96.4476 485.666 96.0334 452.603L80.0347 452.803C80.4578 486.581 84.8818 527.865 100.868 560.491L115.236 553.451ZM158.994 394H358.335V378H158.994V394ZM159.557 576C140.09 576 122.618 568.517 115.236 553.451L100.868 560.491C112.019 583.248 136.904 592 159.557 592V576ZM404.775 553.236C398.138 568.384 380.952 576 361.463 576V592C384.093 592 409.164 583.087 419.43 559.657L404.775 553.236ZM438.587 456.844C440.334 411.604 402.279 378 358.335 378V394C394.558 394 423.945 421.36 422.599 456.227L438.587 456.844ZM96.0334 452.603C95.6165 419.328 124.155 394 158.994 394V378C116.842 378 79.4871 409.092 80.0347 452.803L96.0334 452.603Z" fill="#211A1A" mask="url(#path-2-inside-1_3_1541)"/>
<mask id="path-4-inside-2_3_1541" fill="white">
<path fill-rule="evenodd" clip-rule="evenodd" d="M213.374 386H217.26C222.857 355.684 222.857 317 222.857 317H299.143C299.143 317 299.143 355.684 304.74 386H328.626C312.782 398.524 292.764 406 271 406C249.236 406 229.218 398.524 213.374 386Z"/>
</mask>
<path fill-rule="evenodd" clip-rule="evenodd" d="M213.374 386H217.26C222.857 355.684 222.857 317 222.857 317H299.143C299.143 317 299.143 355.684 304.74 386H328.626C312.782 398.524 292.764 406 271 406C249.236 406 229.218 398.524 213.374 386Z" fill="#C89583"/>
<path d="M213.374 386V378H190.353L208.413 392.276L213.374 386ZM217.26 386V394H223.918L225.127 387.452L217.26 386ZM222.857 317V309H214.857L214.857 317L222.857 317ZM299.143 317L307.143 317V309H299.143V317ZM304.74 386L296.873 387.452L298.081 394H304.74V386ZM328.626 386L333.587 392.276L351.647 378H328.626V386ZM213.374 394H217.26V378H213.374V394ZM225.127 387.452C228.019 371.79 229.44 354.139 230.147 340.547C230.502 333.72 230.679 327.854 230.768 323.689C230.812 321.605 230.835 319.945 230.846 318.8C230.851 318.227 230.854 317.783 230.856 317.479C230.856 317.328 230.857 317.211 230.857 317.13C230.857 317.09 230.857 317.059 230.857 317.037C230.857 317.026 230.857 317.018 230.857 317.012C230.857 317.008 230.857 317.006 230.857 317.004C230.857 317.003 230.857 317.002 230.857 317.002C230.857 317.001 230.857 317 222.857 317C214.857 317 214.857 317 214.857 316.999C214.857 316.999 214.857 316.999 214.857 316.999C214.857 317 214.857 317.001 214.857 317.003C214.857 317.006 214.857 317.011 214.857 317.019C214.857 317.035 214.857 317.06 214.857 317.093C214.857 317.161 214.856 317.265 214.856 317.404C214.854 317.682 214.852 318.099 214.847 318.643C214.836 319.732 214.814 321.331 214.771 323.348C214.685 327.383 214.513 333.083 214.168 339.716C213.475 353.045 212.098 369.894 209.393 384.548L225.127 387.452ZM222.857 325H299.143V309H222.857V325ZM299.143 317C291.143 317 291.143 317.001 291.143 317.002C291.143 317.002 291.143 317.003 291.143 317.004C291.143 317.006 291.143 317.008 291.143 317.012C291.143 317.018 291.143 317.026 291.143 317.037C291.143 317.059 291.143 317.09 291.143 317.13C291.143 317.211 291.144 317.328 291.144 317.479C291.146 317.783 291.149 318.227 291.154 318.8C291.165 319.945 291.188 321.605 291.232 323.689C291.321 327.854 291.498 333.72 291.853 340.547C292.56 354.139 293.981 371.79 296.873 387.452L312.607 384.548C309.901 369.894 308.524 353.045 307.832 339.716C307.487 333.083 307.315 327.383 307.228 323.348C307.185 321.331 307.164 319.732 307.153 318.643C307.148 318.099 307.145 317.682 307.144 317.404C307.143 317.265 307.143 317.161 307.143 317.093C307.143 317.06 307.143 317.035 307.143 317.019C307.143 317.011 307.143 317.006 307.143 317.003C307.143 317.001 307.143 317 307.143 317C307.143 316.999 307.143 316.999 307.143 316.999C307.143 317 307.143 317 299.143 317ZM304.74 394H328.626V378H304.74V394ZM323.665 379.724C309.183 391.171 290.9 398 271 398V414C294.628 414 316.381 405.877 333.587 392.276L323.665 379.724ZM271 398C251.1 398 232.817 391.171 218.335 379.724L208.413 392.276C225.619 405.877 247.372 414 271 414V398Z" fill="#211A1A" mask="url(#path-4-inside-2_3_1541)"/>
<path d="M297.372 360.119C297.591 362.26 297.879 364.999 298.224 368.068C299.039 375.318 300.175 384.48 301.447 391.958C301.994 395.172 300.85 398.068 298.655 399.554C290.724 404.924 276.233 413 261.403 413C246.573 413 232.083 404.924 224.151 399.554C221.957 398.068 220.812 395.172 221.359 391.958C222.632 384.48 223.767 375.318 224.582 368.068C224.927 364.999 225.216 362.26 225.434 360.119C227.696 360.707 230.665 361.435 234.077 362.162C241.804 363.81 251.992 365.5 261.403 365.5C270.815 365.5 281.002 363.81 288.729 362.162C292.141 361.435 295.111 360.707 297.372 360.119Z" fill="#71102D" stroke="#211A1A" stroke-width="8"/>
<path d="M406 219C406 224.846 404.218 229.984 401.528 233.571C398.839 237.156 395.429 239 392 239C388.571 239 385.161 237.156 382.472 233.571C379.782 229.984 378 224.846 378 219C378 213.154 379.782 208.016 382.472 204.429C385.161 200.844 388.571 199 392 199C395.429 199 398.839 200.844 401.528 204.429C404.218 208.016 406 213.154 406 219Z" fill="#F8D9CE" stroke="#150C0C" stroke-width="8"/>
<path d="M141 219C141 224.846 139.218 229.984 136.528 233.571C133.839 237.156 130.429 239 127 239C123.571 239 120.161 237.156 117.472 233.571C114.782 229.984 113 224.846 113 219C113 213.154 114.782 208.016 117.472 204.429C120.161 200.844 123.571 199 127 199C130.429 199 133.839 200.844 136.528 204.429C139.218 208.016 141 213.154 141 219Z" fill="#F8D9CE" stroke="#150C0C" stroke-width="8"/>
<path d="M260.004 61.0001L259.996 61.0001C259.953 61 259.94 61.0001 259.924 61.0002L260.004 61.0001ZM260.004 61.0001L260.172 61C329.949 61.1427 385.527 103.798 385.527 157.495C385.527 170.008 386.301 179.692 387.195 190.89C387.389 193.321 387.589 195.823 387.787 198.441C388.903 213.136 390 227.603 390 242.137C390 272.713 371.228 299.809 345.176 319.493C319.13 339.172 286.524 350.865 260.278 350.999L260.25 350.999M260.004 61.0001L260.25 350.999M260.25 350.999L260.221 351M260.25 350.999L260.221 351M260.221 351C260.204 351 260.189 351 260.175 351L260.008 351H260M260.221 351L260 351M260 351H259.992M260 351H259.992M259.992 351L259.825 351C259.811 351 259.796 351 259.779 351L259.75 350.999M259.992 351L259.75 350.999M259.75 350.999L259.722 350.999M259.75 350.999L259.722 350.999M259.722 350.999C233.476 350.865 200.87 339.172 174.824 319.493M259.722 350.999L174.824 319.493M174.824 319.493C148.772 299.809 130 272.713 130 242.137M174.824 319.493L130 242.137M130 242.137C130 227.603 131.097 213.136 132.213 198.441M130 242.137L132.213 198.441M132.213 198.441C132.411 195.823 132.611 193.321 132.805 190.89M132.213 198.441L132.805 190.89M132.805 190.89C133.699 179.692 134.473 170.008 134.473 157.495M132.805 190.89L134.473 157.495M134.473 157.495C134.473 103.798 190.052 61.1427 259.829 61.0004L134.473 157.495Z" fill="#F8D9CE" stroke="#150C0C" stroke-width="8"/>
<circle cx="194" cy="206" r="14" fill="#150C0C"/>
<circle cx="197" cy="203" r="3" fill="white" fill-opacity="0.9"/>
<circle cx="336" cy="206" r="14" fill="#150C0C"/>
<circle cx="340" cy="203" r="3" fill="white" fill-opacity="0.9"/>
<path d="M312.859 174.275C311.631 174.905 311.145 176.412 311.775 177.641C312.405 178.869 313.912 179.355 315.141 178.725L312.859 174.275ZM364.475 183.481C365.57 184.323 367.139 184.119 367.981 183.025C368.823 181.93 368.619 180.361 367.525 179.519L364.475 183.481ZM315.141 178.725C328.047 172.108 340.332 173.269 349.494 176.136C354.079 177.571 357.853 179.427 360.477 180.922C361.787 181.668 362.804 182.322 363.486 182.782C363.827 183.013 364.083 183.194 364.25 183.315C364.333 183.375 364.394 183.421 364.432 183.449C364.451 183.463 364.464 183.473 364.471 183.478C364.475 183.481 364.477 183.483 364.478 183.483C364.478 183.483 364.478 183.483 364.478 183.483C364.478 183.483 364.477 183.482 364.477 183.482C364.476 183.482 364.475 183.481 366 181.5C367.525 179.519 367.524 179.518 367.523 179.517C367.522 179.517 367.521 179.516 367.52 179.515C367.518 179.514 367.516 179.512 367.513 179.51C367.508 179.506 367.501 179.501 367.493 179.494C367.476 179.482 367.453 179.464 367.424 179.443C367.367 179.4 367.286 179.34 367.182 179.265C366.974 179.114 366.673 178.901 366.285 178.639C365.51 178.116 364.385 177.394 362.953 176.578C360.093 174.948 355.988 172.929 350.987 171.364C340.975 168.231 327.26 166.892 312.859 174.275L315.141 178.725Z" fill="black"/>
<path d="M217.141 174.275C218.369 174.905 218.855 176.412 218.225 177.641C217.595 178.869 216.088 179.355 214.859 178.725L217.141 174.275ZM165.525 183.481C164.43 184.323 162.861 184.119 162.019 183.025C161.177 181.93 161.381 180.361 162.475 179.519L165.525 183.481ZM214.859 178.725C201.953 172.108 189.668 173.269 180.506 176.136C175.921 177.571 172.147 179.427 169.523 180.922C168.213 181.668 167.196 182.322 166.514 182.782C166.173 183.013 165.917 183.194 165.75 183.315C165.667 183.375 165.606 183.421 165.568 183.449C165.549 183.463 165.536 183.473 165.529 183.478C165.525 183.481 165.523 183.483 165.522 183.483C165.522 183.483 165.522 183.483 165.522 183.483C165.522 183.483 165.523 183.482 165.523 183.482C165.524 183.482 165.525 183.481 164 181.5C162.475 179.519 162.476 179.518 162.477 179.517C162.478 179.517 162.479 179.516 162.48 179.515C162.482 179.514 162.484 179.512 162.487 179.51C162.492 179.506 162.499 179.501 162.507 179.494C162.524 179.482 162.547 179.464 162.576 179.443C162.633 179.4 162.714 179.34 162.818 179.265C163.026 179.114 163.327 178.901 163.715 178.639C164.49 178.116 165.615 177.394 167.047 176.578C169.907 174.948 174.012 172.929 179.013 171.364C189.025 168.231 202.74 166.892 217.141 174.275L214.859 178.725Z" fill="black"/>
<circle r="3.5" transform="matrix(1 0 0 -1 183.5 270.5)" fill="#9C6458" fill-opacity="0.5" style="mix-blend-mode:multiply"/>
<circle r="3.5" transform="matrix(1 0 0 -1 190.5 259.5)" fill="#9C6458" fill-opacity="0.5" style="mix-blend-mode:multiply"/>
<circle r="3.5" transform="matrix(1 0 0 -1 202.5 270.5)" fill="#9C6458" fill-opacity="0.5" style="mix-blend-mode:multiply"/>
<circle cx="336.5" cy="270.5" r="3.5" transform="rotate(-180 336.5 270.5)" fill="#9C6458" fill-opacity="0.5" style="mix-blend-mode:multiply"/>
<circle cx="329.5" cy="259.5" r="3.5" transform="rotate(-180 329.5 259.5)" fill="#9C6458" fill-opacity="0.5" style="mix-blend-mode:multiply"/>
<circle cx="317.5" cy="270.5" r="3.5" transform="rotate(-180 317.5 270.5)" fill="#9C6458" fill-opacity="0.5" style="mix-blend-mode:multiply"/>
<path d="M279.523 208.015C279.025 185.321 295.999 165.178 318.43 161.585C329.216 159.857 340.048 160.127 351.58 162.873C369.204 167.07 382.948 181.784 384.266 199.714C384.994 209.615 384.022 219.6 381.404 228.879C377.135 244.006 363.224 254.341 347.436 256.526C337.458 257.908 327.02 257.908 316.085 255.953C298.048 252.729 283.497 238.496 280.635 220.46C279.986 216.373 279.616 212.232 279.523 208.015Z" stroke="#423636" stroke-width="3"/>
<path d="M246.477 208.015C246.975 185.321 230.001 165.178 207.57 161.585C196.784 159.857 185.952 160.127 174.42 162.873C156.796 167.07 143.052 181.784 141.734 199.714C141.006 209.615 141.978 219.6 144.596 228.879C148.865 244.006 162.776 254.341 178.564 256.526C188.542 257.908 198.98 257.908 209.915 255.953C227.952 252.729 242.503 238.496 245.365 220.46C246.014 216.373 246.384 212.232 246.477 208.015Z" stroke="#423636" stroke-width="3"/>
<path d="M235 176.51C235 176.51 248.723 170.33 262.917 170.33C277.11 170.33 290 178.57 290 178.57" stroke="#423636" stroke-width="3"/>
<path d="M227.018 273.47C227.017 273.47 227.024 273.464 227.04 273.452C227.026 273.464 227.018 273.47 227.018 273.47ZM227.952 273.024C228.116 272.964 228.303 272.9 228.517 272.832C230.189 272.306 232.74 271.825 236.002 271.426C242.477 270.634 251.197 270.23 259.979 270.23C268.762 270.23 277.482 270.634 283.957 271.426C287.219 271.825 289.77 272.306 291.442 272.832C291.68 272.907 291.885 272.978 292.061 273.045C292.011 273.141 291.954 273.246 291.888 273.358C291.46 274.084 290.775 274.955 289.812 275.932C287.888 277.885 285.097 280.014 281.808 281.993C275.149 285.999 267.101 289 260.985 289C254.838 289 246.267 285.977 239.077 281.947C235.525 279.956 232.481 277.812 230.371 275.844C229.314 274.858 228.563 273.982 228.095 273.256C228.043 273.175 227.995 273.098 227.952 273.024ZM292.941 273.47C292.941 273.47 292.933 273.464 292.919 273.452C292.935 273.464 292.942 273.47 292.941 273.47Z" fill="#F9ECEC" stroke="#150C0C" stroke-width="6"/>
<path d="M305.498 278.976C305.498 278.976 298.7 276.948 294.677 272.266C290.654 267.583 290.877 260 290.877 260" stroke="#150C0C" stroke-width="2"/>
<path d="M213.969 278.976C213.969 278.976 220.767 276.948 224.79 272.266C228.813 267.583 228.59 260 228.59 260" stroke="#150C0C" stroke-width="2"/>
<mask id="path-28-outside-3_3_1541" maskUnits="userSpaceOnUse" x="133" y="34" width="285" height="394" fill="black">
<rect fill="white" x="133" y="34" width="285" height="394"/>
<path fill-rule="evenodd" clip-rule="evenodd" d="M409 207.26C409.334 201.919 409.5 196.494 409.5 191C409.5 108.71 353 42 290 42C261.372 42 234.629 50.0739 211.925 64.0689C226.771 59.5257 242.943 57.0344 259.825 57.0004L259.905 57.0002L260 57.0001L260.175 57C331.101 57.1431 389.527 100.664 389.527 157.495C389.527 169.836 390.286 179.344 391.179 190.528L391.179 190.529L391.179 190.529L391.18 190.537C391.323 192.34 391.471 194.187 391.619 196.096C400.802 197.187 408 207.473 408 220C408 231.427 402.011 240.988 393.99 243.408C393.2 292.404 346.921 331.668 300.969 347.473C301.706 360.555 303.101 376.708 305.74 391H359.335C378.351 391 395.934 397.86 409 409.348V207.26ZM222.956 348.766C191.479 338.851 159.232 317.716 141 289.791V393.353C147.08 391.813 153.457 391 159.994 391H218.26C220.813 377.175 222.201 361.61 222.956 348.766Z"/>
</mask>
<path fill-rule="evenodd" clip-rule="evenodd" d="M409 207.26C409.334 201.919 409.5 196.494 409.5 191C409.5 108.71 353 42 290 42C261.372 42 234.629 50.0739 211.925 64.0689C226.771 59.5257 242.943 57.0344 259.825 57.0004L259.905 57.0002L260 57.0001L260.175 57C331.101 57.1431 389.527 100.664 389.527 157.495C389.527 169.836 390.286 179.344 391.179 190.528L391.179 190.529L391.179 190.529L391.18 190.537C391.323 192.34 391.471 194.187 391.619 196.096C400.802 197.187 408 207.473 408 220C408 231.427 402.011 240.988 393.99 243.408C393.2 292.404 346.921 331.668 300.969 347.473C301.706 360.555 303.101 376.708 305.74 391H359.335C378.351 391 395.934 397.86 409 409.348V207.26ZM222.956 348.766C191.479 338.851 159.232 317.716 141 289.791V393.353C147.08 391.813 153.457 391 159.994 391H218.26C220.813 377.175 222.201 361.61 222.956 348.766Z" fill="#150C0C"/>
<path d="M409 207.26L401.016 206.76L401 207.01V207.26H409ZM211.925 64.0689L207.727 57.2588L214.266 71.7187L211.925 64.0689ZM259.825 57.0004L259.811 49.0004L259.808 49.0004L259.825 57.0004ZM259.905 57.0002L259.894 49.0002L259.891 49.0002L259.905 57.0002ZM260 57.0001L259.996 49.0001L259.989 49.0001L260 57.0001ZM260.175 57L260.192 49L260.181 49L260.171 49L260.175 57ZM391.179 190.528L383.204 191.165L383.205 191.179L383.206 191.193L391.179 190.528ZM391.179 190.529L399.167 190.085L399.16 189.975L399.151 189.864L391.179 190.529ZM391.179 190.529L383.191 190.973L383.196 191.06L383.203 191.146L391.179 190.529ZM391.18 190.537L383.203 191.154L383.204 191.164L383.205 191.173L391.18 190.537ZM391.619 196.096L383.643 196.715L384.152 203.264L390.675 204.04L391.619 196.096ZM393.99 243.408L391.679 235.749L386.085 237.437L385.991 243.28L393.99 243.408ZM300.969 347.473L298.367 339.908L292.641 341.877L292.982 347.923L300.969 347.473ZM305.74 391L297.873 392.452L299.081 399H305.74V391ZM409 409.348L403.718 415.356L417 427.034V409.348H409ZM141 289.791L147.699 285.418L133 262.905V289.791H141ZM222.956 348.766L230.942 349.236L231.309 343.01L225.36 341.136L222.956 348.766ZM141 393.353H133V403.63L142.963 401.108L141 393.353ZM218.26 391V399H224.919L226.127 392.452L218.26 391ZM401.5 191C401.5 196.334 401.339 201.592 401.016 206.76L416.984 207.759C417.329 202.247 417.5 196.655 417.5 191H401.5ZM290 50C347.137 50 401.5 111.529 401.5 191H417.5C417.5 105.89 358.863 34 290 34V50ZM216.123 70.8791C237.601 57.6396 262.896 50 290 50V34C259.847 34 231.657 42.5082 207.727 57.2588L216.123 70.8791ZM259.808 49.0004C242.154 49.036 225.197 51.641 209.584 56.4191L214.266 71.7187C228.344 67.4105 243.733 65.0328 259.841 65.0003L259.808 49.0004ZM259.891 49.0002L259.811 49.0004L259.838 65.0003L259.918 65.0002L259.891 49.0002ZM259.989 49.0001L259.894 49.0002L259.916 65.0002L260.011 65.0001L259.989 49.0001ZM260.171 49L259.996 49.0001L260.004 65.0001L260.179 65L260.171 49ZM397.527 157.495C397.527 94.3977 333.412 49.1477 260.192 49L260.159 65C328.791 65.1385 381.527 106.93 381.527 157.495H397.527ZM399.154 189.892C398.261 178.704 397.527 169.482 397.527 157.495H381.527C381.527 170.189 382.312 179.985 383.204 191.165L399.154 189.892ZM399.151 189.864L399.151 189.864L383.206 191.193L383.207 191.193L399.151 189.864ZM399.167 190.085L399.167 190.085L383.191 190.972L383.191 190.973L399.167 190.085ZM399.156 189.919L399.155 189.912L383.203 191.146L383.203 191.154L399.156 189.919ZM399.595 195.477C399.446 193.557 399.298 191.702 399.154 189.9L383.205 191.173C383.349 192.977 383.496 194.816 383.643 196.715L399.595 195.477ZM416 220C416 205.283 407.382 189.913 392.563 188.152L390.675 204.04C394.221 204.461 400 209.662 400 220H416ZM396.301 251.067C408.814 247.292 416 233.634 416 220H400C400 229.219 395.208 234.685 391.679 235.749L396.301 251.067ZM303.571 355.038C327.597 346.774 351.77 332.376 370.152 313.463C388.542 294.541 401.552 270.63 401.989 243.537L385.991 243.28C385.638 265.182 375.114 285.4 358.678 302.311C342.236 319.23 320.293 332.366 298.367 339.908L303.571 355.038ZM313.607 389.548C311.057 375.737 309.686 359.967 308.957 347.023L292.982 347.923C293.727 361.142 295.145 377.678 297.873 392.452L313.607 389.548ZM359.335 383H305.74V399H359.335V383ZM414.282 403.34C399.74 390.553 380.272 383 359.335 383V399C376.429 399 392.129 405.167 403.718 415.356L414.282 403.34ZM401 207.26V409.348H417V207.26H401ZM134.301 294.165C153.763 323.973 187.731 346.058 220.553 356.397L225.36 341.136C195.227 331.644 164.702 311.459 147.699 285.418L134.301 294.165ZM149 393.353V289.791H133V393.353H149ZM159.994 383C152.793 383 145.757 383.896 139.037 385.597L142.963 401.108C148.404 399.731 154.121 399 159.994 399V383ZM218.26 383H159.994V399H218.26V383ZM214.97 348.297C214.223 361 212.859 376.192 210.393 389.548L226.127 392.452C228.766 378.158 230.179 362.219 230.942 349.236L214.97 348.297Z" fill="#150C0C" mask="url(#path-28-outside-3_3_1541)"/>
<path d="M349.973 91.4147C325.778 127.683 294.157 137.373 264.395 145.475C263.157 145.812 261.92 146.146 260.685 146.48C231.819 154.285 203.959 161.817 190.888 194.515C176.958 229.359 169 269.846 169 313C169 376.466 186.217 434.225 214.39 476.733C181.82 466.2 152.824 440.371 131.286 404.116C107.492 364.062 93 311.573 93 254C93 126.884 163.202 39 247.5 39C288.52 39 327.376 67.1578 349.973 91.4147Z" fill="#150C0C" stroke="#150C0C" stroke-width="8"/>
</g>
<defs>
<clipPath id="clip0_3_1541">
<rect width="519" height="519" rx="259.5" fill="white"/>
</clipPath>
</defs>
</svg>
