<svg width="38" height="38" viewBox="0 0 38 38" fill="none" xmlns="http://www.w3.org/2000/svg">
<path fill-rule="evenodd" clip-rule="evenodd" d="M0.666626 3.72984C0.666626 2.91739 0.98937 2.13822 1.56386 1.56374C2.13834 0.989251 2.91751 0.666508 3.72996 0.666508H34.2666C34.6693 0.66585 35.0681 0.744613 35.4402 0.898286C35.8123 1.05196 36.1505 1.27752 36.4354 1.56207C36.7202 1.84661 36.9462 2.18455 37.1002 2.55652C37.2543 2.9285 37.3335 3.32722 37.3333 3.72984V34.2665C37.3337 34.6692 37.2548 35.068 37.1009 35.4402C36.9471 35.8124 36.7213 36.1505 36.4367 36.4354C36.152 36.7202 35.8139 36.9461 35.4419 37.1002C35.0698 37.2542 34.671 37.3334 34.2683 37.3332H3.72996C3.32754 37.3332 2.92906 37.2539 2.55729 37.0998C2.18552 36.9458 1.84775 36.72 1.56327 36.4354C1.27879 36.1507 1.05318 35.8128 0.89933 35.441C0.745481 35.0691 0.666407 34.6706 0.666626 34.2682V3.72984ZM15.18 14.6465H20.145V17.1398C20.8616 15.7065 22.695 14.4165 25.45 14.4165C30.7316 14.4165 31.9833 17.2715 31.9833 22.5098V32.2132H26.6383V23.7032C26.6383 20.7198 25.9216 19.0365 24.1016 19.0365C21.5766 19.0365 20.5266 20.8515 20.5266 23.7032V32.2132H15.18V14.6465ZM6.01329 31.9848H11.36V14.4165H6.01329V31.9832V31.9848ZM12.125 8.68651C12.135 9.1443 12.0536 9.59949 11.8854 10.0254C11.7171 10.4512 11.4655 10.8392 11.1453 11.1666C10.8251 11.4939 10.4428 11.754 10.0207 11.9315C9.59865 12.1091 9.14536 12.2005 8.68746 12.2005C8.22956 12.2005 7.77627 12.1091 7.3542 11.9315C6.93213 11.754 6.54977 11.4939 6.22957 11.1666C5.90937 10.8392 5.65778 10.4512 5.48956 10.0254C5.32134 9.59949 5.23988 9.1443 5.24996 8.68651C5.26975 7.78793 5.6406 6.93283 6.2831 6.30432C6.9256 5.67581 7.78867 5.32387 8.68746 5.32387C9.58625 5.32387 10.4493 5.67581 11.0918 6.30432C11.7343 6.93283 12.1052 7.78793 12.125 8.68651Z" fill="#334B71"/>
</svg>
